<svg width="374" height="374" viewBox="0 0 374 374" fill="none" xmlns="http://www.w3.org/2000/svg">
<path d="M143.314 89.2991C142.788 78.183 157.212 73.4048 163.427 82.6364L202.655 140.908C205.193 144.677 209.515 146.848 214.054 146.634L284.221 143.314C295.337 142.788 300.115 157.212 290.883 163.427L232.612 202.655C228.842 205.193 226.672 209.515 226.886 214.054L230.206 284.221C230.731 295.337 216.308 300.115 210.093 290.883L170.864 232.612C168.327 228.843 164.005 226.672 159.466 226.886L89.299 230.206C78.1829 230.732 73.4047 216.308 82.6363 210.093L140.908 170.865C144.677 168.327 146.848 164.005 146.634 159.466L143.314 89.2991Z" fill="#FF4500" stroke="#0F0F0E" stroke-width="2"/>
</svg>
