<svg width="362" height="362" viewBox="0 0 362 362" fill="none" xmlns="http://www.w3.org/2000/svg">
<path d="M198.247 75.6953C203.915 66.1185 218.592 70.0511 218.712 81.179L219.472 151.421C219.521 155.964 221.94 160.153 225.85 162.467L286.301 198.246C295.878 203.914 291.945 218.591 280.817 218.712L210.576 219.472C206.032 219.521 201.843 221.939 199.529 225.85L163.75 286.301C158.082 295.877 143.405 291.945 143.284 280.817L142.524 210.575C142.475 206.032 140.057 201.843 136.146 199.529L75.6956 163.75C66.1188 158.081 70.0514 143.405 81.1793 143.284L151.421 142.524C155.965 142.475 160.153 140.056 162.467 136.146L198.247 75.6953Z" fill="#3BC460" stroke="#0F0F0E" stroke-width="2"/>
</svg>
