<svg width="294" height="294" viewBox="0 0 294 294" fill="none" xmlns="http://www.w3.org/2000/svg">
<path d="M101.561 65.5095C101.856 58.067 110.547 54.1835 116.288 58.9292L153.467 89.663C156.249 91.9632 159.984 92.7521 163.459 91.7732L209.889 78.6937C217.058 76.6741 223.438 83.7397 220.699 90.666L202.957 135.523C201.63 138.88 202.034 142.675 204.038 145.678L230.825 185.793C234.962 191.988 230.213 200.239 222.779 199.774L174.636 196.763C171.032 196.537 167.548 198.094 165.312 200.929L135.437 238.801C130.824 244.649 121.509 242.682 119.654 235.468L107.641 188.751C106.742 185.255 104.185 182.422 100.798 181.171L55.5465 164.462C48.5595 161.882 47.5523 152.415 53.8397 148.422L94.5583 122.56C97.6057 120.625 99.5095 117.316 99.6523 113.709L101.561 65.5095Z" fill="#FF73A6" stroke="#0F0F0E" stroke-width="2"/>
</svg>
