<?xml version="1.0" encoding="UTF-8"?>
<svg version="1.1" xmlns="http://www.w3.org/2000/svg" width="124" height="124">
<path d="M0 0 C40.92 0 81.84 0 124 0 C124 40.92 124 81.84 124 124 C83.08 124 42.16 124 0 124 C0 83.08 0 42.16 0 0 Z " fill="#0F0F0D" transform="translate(0,0)"/>
<path d="M0 0 C40.92 0 81.84 0 124 0 C124 40.92 124 81.84 124 124 C83.08 124 42.16 124 0 124 C0 83.08 0 42.16 0 0 Z M5 13 C3.34212759 16.31574481 3.84364508 20.02308844 3.83886719 23.66894531 C3.83390228 24.56668167 3.82893738 25.46441803 3.82382202 26.38935852 C3.80917871 29.36895506 3.8023941 32.34849833 3.796875 35.328125 C3.79112447 37.39597577 3.78536672 39.46382652 3.77960205 41.53167725 C3.7690853 45.87284596 3.76324733 50.21399612 3.75976562 54.55517578 C3.75428545 60.11480905 3.73027038 65.67419685 3.70179367 71.2337532 C3.68315683 75.50773836 3.67796108 79.78166459 3.67642975 84.05568695 C3.67340407 86.10498138 3.66537843 88.15427479 3.65224457 90.20352936 C3.63516558 93.07370063 3.63706915 95.94327491 3.64355469 98.81347656 C3.6343399 99.6583815 3.62512512 100.50328644 3.6156311 101.37379456 C3.65547921 107.01114895 4.53358705 111.35786297 8.53515625 115.64453125 C13.90681128 119.75226745 17.02198209 120.15242197 23.66894531 120.16113281 C24.56668167 120.16609772 25.46441803 120.17106262 26.38935852 120.17617798 C29.36895506 120.19082129 32.34849833 120.1976059 35.328125 120.203125 C37.39597577 120.20887553 39.46382652 120.21463328 41.53167725 120.22039795 C45.87284596 120.2309147 50.21399612 120.23675267 54.55517578 120.24023438 C60.11480905 120.24571455 65.67419685 120.26972962 71.2337532 120.29820633 C75.50773836 120.31684317 79.78166459 120.32203892 84.05568695 120.32357025 C86.10498138 120.32659593 88.15427479 120.33462157 90.20352936 120.34775543 C93.07370063 120.36483442 95.94327491 120.36293085 98.81347656 120.35644531 C99.6583815 120.3656601 100.50328644 120.37487488 101.37379456 120.3843689 C107.01292245 120.34450825 111.31829588 119.44601991 115.64453125 115.5 C119.90985135 110.02213071 120.15566768 105.95688369 120.17700195 99.2175293 C120.18357315 98.31964691 120.19014435 97.42176453 120.19691467 96.49667358 C120.21664056 93.52252113 120.22830819 90.54841914 120.23828125 87.57421875 C120.24235678 86.55843058 120.2464323 85.5426424 120.25063133 84.49607277 C120.27148819 79.12051217 120.28579207 73.74497707 120.29516602 68.36938477 C120.30623474 62.81755408 120.34064127 57.26612372 120.38033772 51.71443462 C120.40648131 47.44474034 120.41485581 43.17514182 120.41844749 38.90537453 C120.42331861 36.85885728 120.43494748 34.81234446 120.45348549 32.76590538 C120.47783055 29.90049862 120.4769204 27.0361328 120.4699707 24.1706543 C120.48278076 23.3273204 120.49559082 22.48398651 120.50878906 21.61509705 C120.46151907 16.26148793 119.53023345 13.26018025 116 9 C110.56737048 4.09738311 106.3013521 3.84542278 99.2175293 3.82299805 C98.31964691 3.81642685 97.42176453 3.80985565 96.49667358 3.80308533 C93.52252113 3.78335944 90.54841914 3.77169181 87.57421875 3.76171875 C86.55843058 3.75764322 85.5426424 3.7535677 84.49607277 3.74936867 C79.12051217 3.72851181 73.74497707 3.71420793 68.36938477 3.70483398 C62.81755408 3.69376526 57.26612372 3.65935873 51.71443462 3.61966228 C47.44474034 3.59351869 43.17514182 3.58514419 38.90537453 3.58155251 C36.85885728 3.57668139 34.81234446 3.56505252 32.76590538 3.54651451 C29.90049862 3.52216945 27.0361328 3.5230796 24.1706543 3.5300293 C22.90565346 3.51081421 22.90565346 3.51081421 21.61509705 3.49121094 C13.8655427 3.55963606 9.49420888 6.67481713 5 13 Z " fill="#E8E5DE" transform="translate(0,0)"/>
<path d="M0 0 C4.1816917 1.59917426 6.76750711 4.68859912 9.6875 7.9375 C10.21424316 8.51580566 10.74098633 9.09411133 11.28369141 9.68994141 C15.34671728 14.18648807 19.22262285 18.81931039 23.01953125 23.54296875 C25.61060812 26.75753947 28.29610494 29.88012108 31 33 C26.8875956 42.20496736 18.40704708 49.84184117 11.59765625 57.18359375 C8.32773494 60.72887685 5.14827809 64.34670802 2 68 C1.01 67.67 0.02 67.34 -1 67 C-0.4311005 63.36224828 0.88372473 61.83884418 3.5625 59.375 C7.39024307 55.69709741 10.63874965 51.78781357 13.90234375 47.609375 C17.41458176 43.24033405 21.20771551 39.12586507 25 35 C23.49993609 31.55220914 21.49590738 29.17639467 18.9375 26.4375 C14.81105836 21.93954593 10.91635681 17.30534141 7.08984375 12.55078125 C5.2458653 10.30009354 3.33436589 8.14941986 1.375 6 C0.59125 5.01 -0.1925 4.02 -1 3 C-0.67 2.01 -0.34 1.02 0 0 Z " fill="#D8D6D0" transform="translate(51,28)"/>
<path d="M0 0 C1.9451 2.91765 2.45276317 4.62537285 3 8 C3.99 8.33 4.98 8.66 6 9 C6.33 9.66 6.66 10.32 7 11 C9.11015954 12.12706706 9.11015954 12.12706706 11.5625 13.125 C12.38878906 13.47820312 13.21507812 13.83140625 14.06640625 14.1953125 C15.02353516 14.59363281 15.02353516 14.59363281 16 15 C16 15.33 16 15.66 16 16 C10.72 16 5.44 16 0 16 C0 10.72 0 5.44 0 0 Z " fill="#F6F6F5" transform="translate(0,108)"/>
<path d="M0 0 C5.28 0 10.56 0 16 0 C13 2 13 2 9.5625 3.6875 C5.41440369 6.01533464 4.07116728 8.78095555 2 13 C1.34 13.99 0.68 14.98 0 16 C0 10.72 0 5.44 0 0 Z " fill="#F6F6F5" transform="translate(0,0)"/>
<path d="M0 0 C5.28 0 10.56 0 16 0 C16 5.28 16 10.56 16 16 C14 13 14 13 12.3125 9.5625 C9.98466536 5.41440369 7.21904445 4.07116728 3 2 C2.01 1.34 1.02 0.68 0 0 Z " fill="#F6F6F5" transform="translate(108,0)"/>
<path d="M0 0 C0.33 0 0.66 0 1 0 C1 4.95 1 9.9 1 15 C-3.95 15 -8.9 15 -14 15 C-13.01 14.67 -12.02 14.34 -11 14 C-11 13.34 -11 12.68 -11 12 C-9.35546875 10.95703125 -9.35546875 10.95703125 -7.1875 9.8125 C-2.72703854 7.17569624 -1.53011748 4.87724948 0 0 Z " fill="#F6F6F5" transform="translate(123,109)"/>
<path d="M0 0 C0.68359375 1.796875 0.68359375 1.796875 1 4 C-0.21484375 5.703125 -0.21484375 5.703125 -1.9375 7.25 C-2.50339844 7.77078125 -3.06929687 8.2915625 -3.65234375 8.828125 C-4.09707031 9.21484375 -4.54179688 9.6015625 -5 10 C-5.99 9.67 -6.98 9.34 -8 9 C-7.53918323 4.85264908 -4.48412936 0 0 0 Z " fill="#D6D4CE" transform="translate(58,86)"/>
<path d="M0 0 C0.66 0.33 1.32 0.66 2 1 C0.63629701 3.99220268 -0.94908083 6.29026529 -3.125 8.75 C-3.93324219 9.67039062 -3.93324219 9.67039062 -4.7578125 10.609375 C-5.37269531 11.29773438 -5.37269531 11.29773438 -6 12 C-7.32 11.34 -8.64 10.68 -10 10 C-9.36191406 9.44570312 -8.72382812 8.89140625 -8.06640625 8.3203125 C-7.24011719 7.59585938 -6.41382812 6.87140625 -5.5625 6.125 C-4.73878906 5.40570313 -3.91507812 4.68640625 -3.06640625 3.9453125 C-0.94017845 2.16761255 -0.94017845 2.16761255 0 0 Z " fill="#E3E0DA" transform="translate(80,60)"/>
<path d="M0 0 C0.66 0.33 1.32 0.66 2 1 C1.67 1.66 1.34 2.32 1 3 C1.66 3.33 2.32 3.66 3 4 C2.071875 4.433125 1.14375 4.86625 0.1875 5.3125 C-2.47184073 6.72038627 -4.08105905 7.76123556 -6 10 C-6.66 9.67 -7.32 9.34 -8 9 C-5.36 6.03 -2.72 3.06 0 0 Z " fill="#262622" transform="translate(81,63)"/>
<path d="M0 0 C-0.5590888 3.24271506 -1.4132178 4.93057424 -4 7 C-4.66 7 -5.32 7 -6 7 C-6.33 6.01 -6.66 5.02 -7 4 C-2.25 0 -2.25 0 0 0 Z " fill="#E4E2DB" transform="translate(64,81)"/>
<path d="M0 0 C0.66 0.33 1.32 0.66 2 1 C1.505 1.391875 1.01 1.78375 0.5 2.1875 C-1.45593143 4.55091715 -1.24207973 6.01435003 -1 9 C-1.99 9.495 -1.99 9.495 -3 10 C-3 9.34 -3 8.68 -3 8 C-4.32 8.33 -5.64 8.66 -7 9 C-6.02180976 7.68677212 -5.0424189 6.37443848 -4.0625 5.0625 C-3.51722656 4.33160156 -2.97195312 3.60070312 -2.41015625 2.84765625 C-1 1 -1 1 0 0 Z " fill="#CBC9C4" transform="translate(67,73)"/>
</svg>
