<svg preserveAspectRatio="none" width="100%" height="100%" overflow="visible" style="display: block;" viewBox="0 0 24 44.0001" fill="none" xmlns="http://www.w3.org/2000/svg">
<path id="Star 22" d="M22.6113 0.685602C22.7445 0.521 22.9673 0.457835 23.167 0.528376C23.3666 0.59906 23.5 0.788232 23.5 1.00006V43.0001C23.5 43.2119 23.3666 43.4011 23.167 43.4717C22.9673 43.5423 22.7445 43.4791 22.6113 43.3145L16.8584 36.1885L7.50488 37.3458C7.35109 37.3647 7.19687 37.3114 7.08789 37.2012C6.97892 37.091 6.92746 36.9359 6.94824 36.7823L8.15527 27.8838L0.704102 22.4024C0.576014 22.3082 0.5 22.1591 0.5 22.0001C0.5 21.841 0.576014 21.6919 0.704102 21.5977L8.15527 16.1153L6.94824 7.21783C6.92746 7.0642 6.97892 6.90916 7.08789 6.79888C7.19687 6.68872 7.35109 6.63538 7.50488 6.65435L16.8584 7.8106L22.6113 0.685602Z" fill="var(--fill-0, #3BC460)" stroke="var(--stroke-0, #0F0F0E)" stroke-linejoin="round"/>
</svg>
