<svg width="233" height="44" viewBox="0 0 233 44" fill="none" xmlns="http://www.w3.org/2000/svg">
<path d="M22.6113 0.685547C22.7445 0.520944 22.9673 0.45778 23.167 0.52832C23.3666 0.599005 23.5 0.788176 23.5 1V43C23.5 43.2118 23.3666 43.401 23.167 43.4717C22.9673 43.5422 22.7445 43.4791 22.6113 43.3145L16.8584 36.1885L7.50488 37.3457C7.35109 37.3647 7.19687 37.3113 7.08789 37.2012C6.97892 37.0909 6.92746 36.9359 6.94824 36.7822L8.15527 27.8838L0.704102 22.4023C0.576014 22.3081 0.5 22.159 0.5 22C0.5 21.841 0.576014 21.6919 0.704102 21.5977L8.15527 16.1152L6.94824 7.21777C6.92746 7.06415 6.97892 6.9091 7.08789 6.79883C7.19687 6.68867 7.35109 6.63533 7.50488 6.6543L16.8584 7.81055L22.6113 0.685547Z" fill="#3BC460" stroke="#0F0F0E" stroke-linejoin="round"/>
<path d="M210.389 0.685547C210.256 0.520944 210.033 0.45778 209.833 0.52832C209.633 0.599005 209.5 0.788176 209.5 1V43C209.5 43.2118 209.633 43.401 209.833 43.4717C210.033 43.5422 210.256 43.4791 210.389 43.3145L216.142 36.1885L225.495 37.3457C225.649 37.3647 225.803 37.3113 225.912 37.2012C226.021 37.0909 226.073 36.9359 226.052 36.7822L224.845 27.8838L232.296 22.4023C232.424 22.3081 232.5 22.159 232.5 22C232.5 21.841 232.424 21.6919 232.296 21.5977L224.845 16.1152L226.052 7.21777C226.073 7.06415 226.021 6.9091 225.912 6.79883C225.803 6.68867 225.649 6.63533 225.495 6.6543L216.142 7.81055L210.389 0.685547Z" fill="#3BC460" stroke="#0F0F0E" stroke-linejoin="round"/>
<mask id="path-3-inside-1_60_41" fill="white">
<path d="M23 0H210V44H23V0Z"/>
</mask>
<path d="M23 0H210V44H23V0Z" fill="#3BC460"/>
<path d="M23 0V1H210V0V-1H23V0ZM210 44V43H23V44V45H210V44Z" fill="#0F0F0E" mask="url(#path-3-inside-1_60_41)"/>
</svg>
