<svg width="1411" height="819" viewBox="0 0 1411 819" fill="none" xmlns="http://www.w3.org/2000/svg">
<path d="M832.827 121.995L832.917 122.008L833.005 121.989L1400.54 0.695312L1309.94 202.295L1309.88 202.434L1309.91 202.583L1400.82 744.558L767.396 810.497L10.1647 744.564L86.3502 586.718L86.4147 586.583L86.3961 586.436L9.98108 0.59082L832.827 121.995Z" fill="url(#paint0_linear_41_78)" stroke="#0F0F0E"/>
<g style="mix-blend-mode:difference" filter="url(#filter0_f_41_78)">
<mask id="mask0_41_78" style="mask-type:alpha" maskUnits="userSpaceOnUse" x="9" y="609" width="1393" height="200">
<path d="M76.0437 609H1377.85L1401.4 744.452L767.534 809L9.40002 744.452L76.0437 609Z" fill="url(#paint1_linear_41_78)"/>
</mask>
<g mask="url(#mask0_41_78)">
<mask id="mask1_41_78" style="mask-type:alpha" maskUnits="userSpaceOnUse" x="9" y="609" width="1393" height="200">
<path d="M76.0437 609H1377.85L1401.4 744.452L767.534 809L9.40002 744.452L76.0437 609Z" fill="#E8E6DE"/>
</mask>
<g mask="url(#mask1_41_78)">
<path d="M76.0437 609H1377.85L1401.4 744.452L767.534 809L9.40002 744.452L76.0437 609Z" fill="#E8E6DE"/>
<path d="M-373.582 721.599L-200.099 730.967L-261.872 757.275L-435.356 747.907L-373.582 721.599Z" fill="#0F0F0E"/>
<path d="M-26.6155 740.334L146.868 749.702L85.0942 776.011L-88.389 766.643L-26.6155 740.334Z" fill="#0F0F0E"/>
<path d="M320.351 759.07L493.834 768.438L432.061 794.746L258.577 785.378L320.351 759.07Z" fill="#0F0F0E"/>
<path d="M667.317 777.806L840.8 787.174L779.027 813.482L605.544 804.114L667.317 777.806Z" fill="#0F0F0E"/>
<path d="M1014.28 796.541L1187.77 805.909L1125.99 832.218L952.51 822.85L1014.28 796.541Z" fill="#0F0F0E"/>
<path d="M1361.25 815.277L1534.73 824.645L1472.96 850.953L1299.48 841.585L1361.25 815.277Z" fill="#0F0F0E"/>
<path d="M-139.193 704.611L34.2905 713.979L-27.483 740.288L-200.966 730.92L-139.193 704.611Z" fill="#0F0F0E"/>
<path d="M207.774 723.347L381.257 732.715L319.484 759.023L146 749.655L207.774 723.347Z" fill="#0F0F0E"/>
<path d="M554.74 742.083L728.223 751.45L666.45 777.759L492.967 768.391L554.74 742.083Z" fill="#0F0F0E"/>
<path d="M901.706 760.818L1075.19 770.186L1013.42 796.495L839.933 787.127L901.706 760.818Z" fill="#0F0F0E"/>
<path d="M1248.67 779.554L1422.16 788.922L1360.38 815.23L1186.9 805.862L1248.67 779.554Z" fill="#0F0F0E"/>
<path d="M1595.64 798.29L1769.12 807.657L1707.35 833.966L1533.87 824.598L1595.64 798.29Z" fill="#0F0F0E"/>
<path d="M-15.6458 651.995L157.837 661.362L96.0639 687.671L-77.4193 678.303L-15.6458 651.995Z" fill="#0F0F0E"/>
<path d="M331.321 670.73L504.804 680.098L443.03 706.406L269.547 697.039L331.321 670.73Z" fill="#0F0F0E"/>
<path d="M678.287 689.466L851.77 698.834L789.997 725.142L616.513 715.774L678.287 689.466Z" fill="#0F0F0E"/>
<path d="M1025.25 708.202L1198.74 717.569L1136.96 743.878L963.48 734.51L1025.25 708.202Z" fill="#0F0F0E"/>
<path d="M1372.22 726.937L1545.7 736.305L1483.93 762.613L1310.45 753.246L1372.22 726.937Z" fill="#0F0F0E"/>
<path d="M1719.19 745.673L1892.67 755.041L1830.9 781.349L1657.41 771.981L1719.19 745.673Z" fill="#0F0F0E"/>
<path d="M-126.488 616.365L46.9949 625.733L-14.7786 652.041L-188.262 642.674L-126.488 616.365Z" fill="#0F0F0E"/>
<path d="M220.478 635.101L393.961 644.469L332.188 670.777L158.705 661.409L220.478 635.101Z" fill="#0F0F0E"/>
<path d="M567.445 653.836L740.928 663.204L679.154 689.513L505.671 680.145L567.445 653.836Z" fill="#0F0F0E"/>
<path d="M914.411 672.572L1087.89 681.94L1026.12 708.248L852.638 698.881L914.411 672.572Z" fill="#0F0F0E"/>
<path d="M1261.38 691.308L1434.86 700.676L1373.09 726.984L1199.6 717.616L1261.38 691.308Z" fill="#0F0F0E"/>
<path d="M1608.34 710.043L1781.83 719.411L1720.05 745.72L1546.57 736.352L1608.34 710.043Z" fill="#0F0F0E"/>
<path d="M107.901 599.378L281.384 608.746L219.611 635.054L46.1276 625.686L107.901 599.378Z" fill="#0F0F0E"/>
<path d="M454.868 618.113L628.351 627.481L566.577 653.79L393.094 644.422L454.868 618.113Z" fill="#0F0F0E"/>
<path d="M801.834 636.849L975.317 646.217L913.544 672.525L740.06 663.157L801.834 636.849Z" fill="#0F0F0E"/>
<path d="M1148.8 655.585L1322.28 664.953L1260.51 691.261L1087.03 681.893L1148.8 655.585Z" fill="#0F0F0E"/>
<path d="M1495.77 674.32L1669.25 683.688L1607.48 709.997L1433.99 700.629L1495.77 674.32Z" fill="#0F0F0E"/>
<path d="M1842.73 693.056L2016.22 702.424L1954.44 728.732L1780.96 719.364L1842.73 693.056Z" fill="#0F0F0E"/>
<path d="M-2.94142 563.748L170.542 573.116L108.768 599.425L-64.7149 590.057L-2.94142 563.748Z" fill="#0F0F0E"/>
<path d="M344.025 582.484L517.508 591.852L455.735 618.16L282.252 608.792L344.025 582.484Z" fill="#0F0F0E"/>
<path d="M690.991 601.22L864.475 610.587L802.701 636.896L629.218 627.528L690.991 601.22Z" fill="#0F0F0E"/>
<path d="M1037.96 619.955L1211.44 629.323L1149.67 655.632L976.184 646.264L1037.96 619.955Z" fill="#0F0F0E"/>
<path d="M1384.92 638.691L1558.41 648.059L1496.63 674.367L1323.15 664.999L1384.92 638.691Z" fill="#0F0F0E"/>
<path d="M1731.89 657.427L1905.37 666.794L1843.6 693.103L1670.12 683.735L1731.89 657.427Z" fill="#0F0F0E"/>
<path d="M231.448 546.761L404.931 556.129L343.158 582.437L169.674 573.069L231.448 546.761Z" fill="#0F0F0E"/>
<path d="M578.414 565.497L751.898 574.864L690.124 601.173L516.641 591.805L578.414 565.497Z" fill="#0F0F0E"/>
<path d="M925.381 584.232L1098.86 593.6L1037.09 619.908L863.607 610.541L925.381 584.232Z" fill="#0F0F0E"/>
<path d="M1272.35 602.968L1445.83 612.336L1384.06 638.644L1210.57 629.276L1272.35 602.968Z" fill="#0F0F0E"/>
<path d="M1619.31 621.704L1792.8 631.071L1731.02 657.38L1557.54 648.012L1619.31 621.704Z" fill="#0F0F0E"/>
<path d="M1966.28 640.439L2139.76 649.807L2077.99 676.115L1904.51 666.748L1966.28 640.439Z" fill="#0F0F0E"/>
<path d="M-250.035 668.982L-76.552 678.35L-138.325 704.658L-311.809 695.29L-250.035 668.982Z" fill="#0F0F0E"/>
<path d="M96.9313 687.718L270.415 697.085L208.641 723.394L35.1579 714.026L96.9313 687.718Z" fill="#0F0F0E"/>
<path d="M443.898 706.453L617.381 715.821L555.607 742.13L382.124 732.762L443.898 706.453Z" fill="#0F0F0E"/>
<path d="M790.864 725.189L964.347 734.557L902.574 760.865L729.091 751.497L790.864 725.189Z" fill="#0F0F0E"/>
<path d="M1137.83 743.925L1311.31 753.292L1249.54 779.601L1076.06 770.233L1137.83 743.925Z" fill="#0F0F0E"/>
<path d="M1484.8 762.66L1658.28 772.028L1596.51 798.337L1423.02 788.969L1484.8 762.66Z" fill="#0F0F0E"/>
</g>
</g>
</g>
<path d="M832.827 121.995L832.917 122.008L833.005 121.989L1400.54 0.695312L1309.94 202.295L1309.88 202.434L1309.91 202.583L1400.82 744.558L767.396 810.497L10.1647 744.564L86.3502 586.718L86.4147 586.583L86.3961 586.436L9.98108 0.59082L832.827 121.995Z" stroke="#0F0F0E"/>
<defs>
<filter id="filter0_f_41_78" x="2.47955e-05" y="599.6" width="1410.8" height="218.8" filterUnits="userSpaceOnUse" color-interpolation-filters="sRGB">
<feFlood flood-opacity="0" result="BackgroundImageFix"/>
<feBlend mode="normal" in="SourceGraphic" in2="BackgroundImageFix" result="shape"/>
<feGaussianBlur stdDeviation="4.7" result="effect1_foregroundBlur_41_78"/>
</filter>
<linearGradient id="paint0_linear_41_78" x1="678.9" y1="393" x2="705.4" y2="811" gradientUnits="userSpaceOnUse">
<stop stop-color="#65CFFD"/>
<stop offset="1" stop-color="#2E52E5"/>
</linearGradient>
<linearGradient id="paint1_linear_41_78" x1="763.4" y1="720" x2="763.4" y2="618" gradientUnits="userSpaceOnUse">
<stop stop-color="white"/>
<stop offset="1" stop-color="white" stop-opacity="0"/>
</linearGradient>
</defs>
</svg>
