<svg width="824" height="223" viewBox="0 0 824 223" fill="none" xmlns="http://www.w3.org/2000/svg" xmlns:xlink="http://www.w3.org/1999/xlink">
<mask id="path-1-outside-1_2_35" maskUnits="userSpaceOnUse" x="5" y="15" width="489" height="208" fill="black">
<rect fill="white" x="5" y="15" width="489" height="208"/>
<path d="M58.3416 181.229C27.1256 181.229 8.6113 166.59 7.10432 141.617H31.6465C32.5077 153.888 43.0565 160.347 57.0499 160.347C69.9668 160.347 76.8559 155.395 76.8559 146.569C76.8559 137.742 69.5363 136.02 59.6333 132.791L44.5635 127.839C25.6186 121.596 9.25715 115.137 9.25715 94.0398C9.25715 73.8032 24.7575 60.4557 52.0984 60.4557C78.5781 60.4557 96.6619 74.4491 99.6758 100.283H75.5642C74.2725 87.366 65.0153 81.3381 51.8831 81.3381C40.6884 81.3381 34.2299 86.0743 34.2299 93.8245C34.2299 102.651 44.1329 105.019 52.3137 107.818L66.0917 112.339C88.6964 119.874 102.259 126.763 102.259 147.215C102.259 168.312 86.3283 181.229 58.3416 181.229ZM124.864 221.056H99.2453L99.2453 63.9002H119.697L122.28 82.6298C129.815 69.2823 144.67 60.4557 162.754 60.4557C192.893 60.4557 214.206 84.9979 214.206 120.304C214.206 156.256 192.893 181.229 162.538 181.229C146.177 181.229 132.614 173.91 124.864 162.069L124.864 221.056ZM156.941 159.701C175.455 159.701 188.157 143.555 188.157 120.304C188.157 97.6996 175.455 81.984 156.726 81.984C137.996 81.984 124.864 97.4843 124.864 119.658C124.864 143.124 137.996 159.701 156.941 159.701ZM250.148 180.368C223.884 180.368 206.661 167.666 206.876 146.353C207.092 119.658 233.571 114.061 255.746 111.478C272.968 109.54 285.67 108.894 285.885 99.8524C285.67 88.6577 277.059 81.3381 262.419 81.3381C247.35 81.3381 236.585 89.5189 235.078 101.359H209.46C211.828 77.2478 233.356 60.4557 262.85 60.4557C293.635 60.4557 310.643 77.2478 310.643 101.575V153.242C310.643 156.472 312.365 158.194 316.24 158.194H322.483V178H310.427C298.802 178 291.698 173.264 289.76 164.652C289.33 163.576 288.899 162.069 288.684 160.777C282.01 173.048 269.524 180.368 250.148 180.368ZM255.315 160.347C272.753 160.347 285.885 150.444 285.885 135.159V119.228C281.579 125.902 270.6 127.409 258.544 128.916C244.336 130.638 232.495 132.575 232.495 144.631C232.495 154.534 240.46 160.347 255.315 160.347ZM343.122 178H317.718V63.9002H338.17L341.184 86.2896C348.504 70.7893 361.851 62.6085 380.796 62.6085H385.102V87.366H380.796C357.115 87.366 343.122 100.068 343.122 121.596V178ZM406.119 178H380.715V16.5381L406.119 16.5381V113.415L454.773 63.9002H485.773L444.439 105.019L491.371 178H461.877L426.786 122.672L406.119 143.339V178Z"/>
</mask>
<path d="M58.3416 181.229C27.1256 181.229 8.6113 166.59 7.10432 141.617H31.6465C32.5077 153.888 43.0565 160.347 57.0499 160.347C69.9668 160.347 76.8559 155.395 76.8559 146.569C76.8559 137.742 69.5363 136.02 59.6333 132.791L44.5635 127.839C25.6186 121.596 9.25715 115.137 9.25715 94.0398C9.25715 73.8032 24.7575 60.4557 52.0984 60.4557C78.5781 60.4557 96.6619 74.4491 99.6758 100.283H75.5642C74.2725 87.366 65.0153 81.3381 51.8831 81.3381C40.6884 81.3381 34.2299 86.0743 34.2299 93.8245C34.2299 102.651 44.1329 105.019 52.3137 107.818L66.0917 112.339C88.6964 119.874 102.259 126.763 102.259 147.215C102.259 168.312 86.3283 181.229 58.3416 181.229ZM124.864 221.056H99.2453L99.2453 63.9002H119.697L122.28 82.6298C129.815 69.2823 144.67 60.4557 162.754 60.4557C192.893 60.4557 214.206 84.9979 214.206 120.304C214.206 156.256 192.893 181.229 162.538 181.229C146.177 181.229 132.614 173.91 124.864 162.069L124.864 221.056ZM156.941 159.701C175.455 159.701 188.157 143.555 188.157 120.304C188.157 97.6996 175.455 81.984 156.726 81.984C137.996 81.984 124.864 97.4843 124.864 119.658C124.864 143.124 137.996 159.701 156.941 159.701ZM250.148 180.368C223.884 180.368 206.661 167.666 206.876 146.353C207.092 119.658 233.571 114.061 255.746 111.478C272.968 109.54 285.67 108.894 285.885 99.8524C285.67 88.6577 277.059 81.3381 262.419 81.3381C247.35 81.3381 236.585 89.5189 235.078 101.359H209.46C211.828 77.2478 233.356 60.4557 262.85 60.4557C293.635 60.4557 310.643 77.2478 310.643 101.575V153.242C310.643 156.472 312.365 158.194 316.24 158.194H322.483V178H310.427C298.802 178 291.698 173.264 289.76 164.652C289.33 163.576 288.899 162.069 288.684 160.777C282.01 173.048 269.524 180.368 250.148 180.368ZM255.315 160.347C272.753 160.347 285.885 150.444 285.885 135.159V119.228C281.579 125.902 270.6 127.409 258.544 128.916C244.336 130.638 232.495 132.575 232.495 144.631C232.495 154.534 240.46 160.347 255.315 160.347ZM343.122 178H317.718V63.9002H338.17L341.184 86.2896C348.504 70.7893 361.851 62.6085 380.796 62.6085H385.102V87.366H380.796C357.115 87.366 343.122 100.068 343.122 121.596V178ZM406.119 178H380.715V16.5381L406.119 16.5381V113.415L454.773 63.9002H485.773L444.439 105.019L491.371 178H461.877L426.786 122.672L406.119 143.339V178Z" fill="#FF7C35"/>
<path d="M7.10432 141.617V140.421H5.83396L5.91048 141.689L7.10432 141.617ZM31.6465 141.617L32.8396 141.534L32.7616 140.421H31.6465V141.617ZM59.6333 132.791L59.2599 133.927L59.2625 133.928L59.6333 132.791ZM44.5635 127.839L44.1891 128.975L44.1901 128.975L44.5635 127.839ZM99.6758 100.283V101.479H101.019L100.864 100.144L99.6758 100.283ZM75.5642 100.283L74.3741 100.402L74.4818 101.479H75.5642V100.283ZM52.3137 107.818L51.9265 108.95L51.9336 108.952L51.9408 108.954L52.3137 107.818ZM66.0917 112.339L66.47 111.204L66.4646 111.202L66.0917 112.339ZM58.3416 181.229V180.033C42.9065 180.033 30.7622 176.413 22.3164 169.844C13.8991 163.297 9.03337 153.729 8.29817 141.545L7.10432 141.617L5.91048 141.689C6.68225 154.479 11.8272 164.716 20.8478 171.732C29.8399 178.726 42.5606 182.425 58.3416 182.425V181.229ZM7.10432 141.617V142.813H31.6465V141.617V140.421H7.10432V141.617ZM31.6465 141.617L30.4535 141.701C30.9097 148.202 33.9526 153.211 38.7374 156.563C43.4877 159.891 49.8851 161.543 57.0499 161.543V160.347V159.151C50.2213 159.151 44.3475 157.573 40.1099 154.604C35.9066 151.659 33.2445 147.304 32.8396 141.534L31.6465 141.617ZM57.0499 160.347V161.543C63.6322 161.543 68.8646 160.286 72.4837 157.747C76.166 155.163 78.0519 151.339 78.0519 146.569H76.8559H75.6599C75.6599 150.626 74.1012 153.69 71.1098 155.789C68.0551 157.932 63.3845 159.151 57.0499 159.151V160.347ZM76.8559 146.569H78.0519C78.0519 144.191 77.5568 142.213 76.5926 140.547C75.6306 138.885 74.248 137.612 72.5969 136.569C69.3668 134.529 64.8588 133.237 60.0041 131.654L59.6333 132.791L59.2625 133.928C64.3108 135.574 68.4141 136.757 71.3195 138.592C72.7362 139.487 73.8024 140.501 74.5223 141.745C75.2399 142.985 75.6599 144.534 75.6599 146.569H76.8559ZM59.6333 132.791L60.0066 131.654L44.9368 126.703L44.5635 127.839L44.1901 128.975L59.2599 133.927L59.6333 132.791ZM44.5635 127.839L44.9378 126.703C35.4392 123.573 26.8111 120.452 20.5411 115.566C14.362 110.752 10.4532 104.206 10.4532 94.0398H9.25715H8.06113C8.06113 104.972 12.333 112.203 19.0709 117.453C25.7178 122.632 34.743 125.862 44.1891 128.975L44.5635 127.839ZM9.25715 94.0398H10.4532C10.4532 84.2542 14.1863 76.2125 21.1746 70.591C28.1925 64.9456 38.6081 61.6517 52.0984 61.6517V60.4557V59.2597C38.2478 59.2597 27.2428 62.6396 19.6753 68.7271C12.0781 74.8385 8.06113 83.5888 8.06113 94.0398H9.25715ZM52.0984 60.4557V61.6517C65.1318 61.6517 75.9833 65.0941 83.9286 71.6066C91.8621 78.1095 97.0113 87.7653 98.4879 100.422L99.6758 100.283L100.864 100.144C99.3264 86.9667 93.9268 76.709 85.445 69.7567C76.975 62.8141 65.5447 59.2597 52.0984 59.2597V60.4557ZM99.6758 100.283V99.087H75.5642V100.283V101.479H99.6758V100.283ZM75.5642 100.283L76.7543 100.164C76.0799 93.4209 73.3037 88.3627 68.8864 85.0136C64.4981 81.6866 58.618 80.1421 51.8831 80.1421V81.3381V82.5341C58.2804 82.5341 63.595 84.0036 67.4413 86.9198C71.2586 89.8139 73.7567 94.2281 74.3741 100.402L75.5642 100.283ZM51.8831 81.3381V80.1421C46.1393 80.1421 41.4502 81.354 38.1633 83.7018C34.8283 86.0839 33.0339 89.5715 33.0339 93.8245H34.2299H35.4259C35.4259 90.3273 36.8607 87.5718 39.5537 85.6482C42.2947 83.6904 46.4322 82.5341 51.8831 82.5341V81.3381ZM34.2299 93.8245H33.0339C33.0339 98.8157 35.8898 101.945 39.6004 104.114C43.2342 106.239 47.9349 107.584 51.9265 108.95L52.3137 107.818L52.7008 106.686C48.5117 105.253 44.1705 104.015 40.8076 102.049C37.5215 100.128 35.4259 97.6599 35.4259 93.8245H34.2299ZM52.3137 107.818L51.9408 108.954L65.7189 113.475L66.0917 112.339L66.4646 111.202L52.6865 106.681L52.3137 107.818ZM66.0917 112.339L65.7135 113.473C77.0287 117.245 85.8629 120.793 91.8831 125.849C97.8072 130.824 101.063 137.313 101.063 147.215H102.259H103.455C103.455 136.664 99.9298 129.483 93.4214 124.017C87.009 118.632 77.7595 114.967 66.47 111.204L66.0917 112.339ZM102.259 147.215H101.063C101.063 157.432 97.222 165.574 90.0574 171.192C82.8552 176.84 72.1695 180.033 58.3416 180.033V181.229V182.425C72.5004 182.425 83.7735 179.16 91.5334 173.075C99.3309 166.96 103.455 158.095 103.455 147.215H102.259ZM124.864 221.057V222.253H126.06V221.057H124.864ZM99.2452 221.057H98.0492V222.253H99.2452V221.057ZM99.2452 63.9002V62.7042H98.0492V63.9002H99.2452ZM119.697 63.9002L120.882 63.7368L120.739 62.7042H119.697V63.9002ZM122.28 82.6298L121.096 82.7932L121.58 86.3038L123.322 83.2178L122.28 82.6298ZM124.864 162.069L125.865 161.414L123.668 158.058V162.069H124.864ZM124.864 221.057V219.86H99.2452V221.057V222.253H124.864V221.057ZM99.2452 221.057H100.441L100.441 63.9002H99.2452H98.0492L98.0492 221.057H99.2452ZM99.2452 63.9002V65.0963H119.697V63.9002V62.7042H99.2452V63.9002ZM119.697 63.9002L118.512 64.0637L121.096 82.7932L122.28 82.6298L123.465 82.4664L120.882 63.7368L119.697 63.9002ZM122.28 82.6298L123.322 83.2178C130.629 70.274 145.068 61.6517 162.754 61.6517V60.4557V59.2597C144.272 59.2597 129.002 68.2906 121.239 82.0419L122.28 82.6298ZM162.754 60.4557V61.6517C177.477 61.6517 190.009 67.6366 198.876 77.9211C207.755 88.2179 213.01 102.888 213.01 120.304H214.206H215.402C215.402 102.414 210.001 87.16 200.688 76.3591C191.364 65.5459 178.17 59.2597 162.754 59.2597V60.4557ZM214.206 120.304H213.01C213.01 138.049 207.752 152.99 198.844 163.474C189.948 173.945 177.364 180.033 162.538 180.033V181.229V182.425C178.068 182.425 191.318 176.027 200.667 165.023C210.004 154.033 215.402 138.512 215.402 120.304H214.206ZM162.538 181.229V180.033C146.546 180.033 133.376 172.889 125.865 161.414L124.864 162.069L123.863 162.724C131.852 174.93 145.808 182.425 162.538 182.425V181.229ZM124.864 162.069H123.668L123.668 221.057H124.864H126.06L126.06 162.069H124.864ZM156.941 159.701V160.897C166.579 160.897 174.723 156.681 180.43 149.463C186.121 142.266 189.353 132.138 189.353 120.304H188.157H186.961C186.961 131.721 183.842 141.291 178.554 147.98C173.281 154.648 165.817 158.505 156.941 158.505V159.701ZM188.157 120.304H189.353C189.353 108.786 186.117 98.921 180.391 91.9108C174.65 84.8817 166.454 80.788 156.726 80.788V81.984V83.18C165.727 83.18 173.246 86.944 178.539 93.4239C183.846 99.9227 186.961 109.218 186.961 120.304H188.157ZM156.726 81.984V80.788C147.006 80.788 138.708 84.82 132.858 91.7334C127.02 98.6327 123.668 108.34 123.668 119.658H124.864H126.06C126.06 108.802 129.274 99.6728 134.684 93.2785C140.083 86.8982 147.715 83.18 156.726 83.18V81.984ZM124.864 119.658H123.668C123.668 131.606 127.011 141.896 132.863 149.226C138.731 156.574 147.088 160.897 156.941 160.897V159.701V158.505C147.849 158.505 140.168 154.54 134.733 147.733C129.283 140.908 126.06 131.177 126.06 119.658H124.864ZM206.876 146.353L208.072 146.366L208.072 146.363L206.876 146.353ZM255.746 111.478L255.612 110.289L255.607 110.29L255.746 111.478ZM285.885 99.8524L287.081 99.8809L287.081 99.8552L287.081 99.8294L285.885 99.8524ZM235.078 101.359V102.555H236.132L236.265 101.51L235.078 101.359ZM209.46 101.359L208.27 101.243L208.141 102.555H209.46V101.359ZM322.483 158.194H323.679V156.998H322.483V158.194ZM322.483 178V179.196H323.679V178H322.483ZM289.76 164.652L290.927 164.39L290.906 164.297L290.871 164.208L289.76 164.652ZM288.684 160.777L289.864 160.581L289.293 157.155L287.633 160.206L288.684 160.777ZM285.885 119.228H287.081V115.168L284.88 118.579L285.885 119.228ZM258.544 128.916L258.688 130.103L258.693 130.102L258.544 128.916ZM250.148 180.368V179.172C237.192 179.172 226.605 176.037 219.313 170.407C212.058 164.804 207.968 156.66 208.072 146.366L206.876 146.353L205.68 146.341C205.569 157.36 209.983 166.224 217.851 172.3C225.683 178.348 236.84 181.564 250.148 181.564V180.368ZM206.876 146.353L208.072 146.363C208.125 139.897 209.763 134.773 212.482 130.666C215.207 126.55 219.062 123.388 223.642 120.927C232.842 115.986 244.801 113.957 255.884 112.666L255.746 111.478L255.607 110.29C244.516 111.582 232.148 113.643 222.51 118.82C217.673 121.419 213.481 124.823 210.488 129.345C207.488 133.876 205.736 139.462 205.68 146.344L206.876 146.353ZM255.746 111.478L255.879 112.666C264.413 111.706 272.042 111.049 277.522 109.479C280.275 108.69 282.626 107.637 284.314 106.094C286.047 104.509 287.019 102.464 287.081 99.8809L285.885 99.8524L284.689 99.824C284.643 101.762 283.947 103.188 282.7 104.328C281.407 105.51 279.466 106.434 276.864 107.179C271.634 108.677 264.301 109.312 255.612 110.289L255.746 111.478ZM285.885 99.8524L287.081 99.8294C286.967 93.9055 284.617 88.9336 280.311 85.4658C276.031 82.0184 269.926 80.1421 262.419 80.1421V81.3381V82.5341C269.552 82.5341 275.072 84.3176 278.811 87.3288C282.524 90.3195 284.588 94.6047 284.689 99.8754L285.885 99.8524ZM262.419 81.3381V80.1421C246.936 80.1421 235.497 88.6003 233.892 101.208L235.078 101.359L236.265 101.51C237.674 90.4375 247.763 82.5341 262.419 82.5341V81.3381ZM235.078 101.359V100.163H209.46V101.359V102.555H235.078V101.359ZM209.46 101.359L210.65 101.476C212.942 78.141 233.791 61.6517 262.85 61.6517V60.4557V59.2597C232.921 59.2597 210.714 76.3545 208.27 101.243L209.46 101.359ZM262.85 60.4557V61.6517C278.032 61.6517 289.668 65.7906 297.494 72.7844C305.306 79.7659 309.447 89.7032 309.447 101.575H310.643H311.839C311.839 89.1192 307.476 78.497 299.088 71.0008C290.714 63.5169 278.453 59.2597 262.85 59.2597V60.4557ZM310.643 101.575H309.447V153.242H310.643H311.839V101.575H310.643ZM310.643 153.242H309.447C309.447 155.063 309.936 156.677 311.182 157.813C312.406 158.929 314.151 159.39 316.24 159.39V158.194V156.998C314.453 156.998 313.4 156.598 312.794 156.045C312.21 155.513 311.839 154.652 311.839 153.242H310.643ZM316.24 158.194V159.39H322.483V158.194V156.998H316.24V158.194ZM322.483 158.194H321.287V178H322.483H323.679V158.194H322.483ZM322.483 178V176.804H310.427V178V179.196H322.483V178ZM310.427 178V176.804C304.765 176.804 300.332 175.649 297.114 173.553C293.921 171.474 291.832 168.413 290.927 164.39L289.76 164.652L288.593 164.915C289.626 169.504 292.058 173.116 295.808 175.558C299.532 177.983 304.464 179.196 310.427 179.196V178ZM289.76 164.652L290.871 164.208C290.472 163.211 290.065 161.787 289.864 160.581L288.684 160.777L287.504 160.974C287.734 162.351 288.187 163.941 288.65 165.097L289.76 164.652ZM288.684 160.777L287.633 160.206C281.212 172.013 269.184 179.172 250.148 179.172V180.368V181.564C269.863 181.564 282.808 174.084 289.734 161.349L288.684 160.777ZM255.315 160.347V161.543C264.251 161.543 272.173 159.006 277.888 154.417C283.623 149.812 287.081 143.177 287.081 135.159H285.885H284.689C284.689 142.426 281.581 148.385 276.39 152.552C271.179 156.736 263.817 159.151 255.315 159.151V160.347ZM285.885 135.159H287.081V119.228H285.885H284.689V135.159H285.885ZM285.885 119.228L284.88 118.579C282.961 121.554 279.478 123.49 274.786 124.861C270.104 126.229 264.444 126.973 258.396 127.729L258.544 128.916L258.693 130.102C264.7 129.351 270.558 128.588 275.456 127.157C280.344 125.729 284.504 123.575 286.89 119.876L285.885 119.228ZM258.544 128.916L258.4 127.728C251.341 128.584 244.627 129.512 239.686 131.814C237.189 132.978 235.073 134.522 233.587 136.646C232.094 138.781 231.299 141.411 231.299 144.631H232.495H233.691C233.691 141.823 234.377 139.691 235.547 138.017C236.725 136.334 238.458 135.025 240.696 133.982C245.228 131.871 251.539 130.969 258.688 130.103L258.544 128.916ZM232.495 144.631H231.299C231.299 149.95 233.463 154.255 237.649 157.183C241.776 160.069 247.759 161.543 255.315 161.543V160.347V159.151C248.017 159.151 242.589 157.719 239.02 155.222C235.51 152.768 233.691 149.215 233.691 144.631H232.495ZM343.122 178V179.196H344.318V178H343.122ZM317.718 178H316.522V179.196H317.718V178ZM317.718 63.9002V62.7042H316.522V63.9002H317.718ZM338.17 63.9002L339.355 63.7407L339.216 62.7042H338.17V63.9002ZM341.184 86.2896L339.999 86.4492L340.538 90.4579L342.266 86.8003L341.184 86.2896ZM385.102 62.6085H386.298V61.4125H385.102V62.6085ZM385.102 87.366V88.5621H386.298V87.366H385.102ZM343.122 178V176.804H317.718V178V179.196H343.122V178ZM317.718 178H318.914V63.9002H317.718H316.522V178H317.718ZM317.718 63.9002V65.0963H338.17V63.9002V62.7042H317.718V63.9002ZM338.17 63.9002L336.985 64.0598L339.999 86.4492L341.184 86.2896L342.369 86.1301L339.355 63.7407L338.17 63.9002ZM341.184 86.2896L342.266 86.8003C345.837 79.2379 350.853 73.5084 357.247 69.6613C363.647 65.8113 371.497 63.8046 380.796 63.8046V62.6085V61.4125C371.15 61.4125 362.855 63.4962 356.014 67.6116C349.169 71.73 343.851 77.841 340.103 85.7789L341.184 86.2896ZM380.796 62.6085V63.8046H385.102V62.6085V61.4125H380.796V62.6085ZM385.102 62.6085H383.906V87.366H385.102H386.298V62.6085H385.102ZM385.102 87.366V86.17H380.796V87.366V88.5621H385.102V87.366ZM380.796 87.366V86.17C368.751 86.17 359.013 89.4016 352.274 95.5226C345.52 101.658 341.926 110.562 341.926 121.596H343.122H344.318C344.318 111.101 347.72 102.891 353.883 97.2932C360.061 91.6813 369.16 88.5621 380.796 88.5621V87.366ZM343.122 121.596H341.926V178H343.122H344.318V121.596H343.122ZM406.119 178V179.196H407.315V178H406.119ZM380.715 178H379.519V179.196H380.715V178ZM380.715 16.5381V15.3421H379.519V16.5381H380.715ZM406.119 16.5381H407.315V15.3421H406.119V16.5381ZM406.119 113.415H404.923V116.339L406.972 114.253L406.119 113.415ZM454.773 63.9002V62.7042H454.271L453.919 63.062L454.773 63.9002ZM485.773 63.9002L486.617 64.7482L488.671 62.7042H485.773V63.9002ZM444.439 105.019L443.596 104.171L442.91 104.853L443.433 105.666L444.439 105.019ZM491.371 178V179.196H493.562L492.377 177.353L491.371 178ZM461.877 178L460.867 178.641L461.219 179.196H461.877V178ZM426.786 122.672L427.796 122.032L426.996 120.771L425.94 121.827L426.786 122.672ZM406.119 143.339L405.273 142.494L404.923 142.844V143.339H406.119ZM406.119 178V176.804H380.715V178V179.196H406.119V178ZM380.715 178H381.911V16.5381H380.715H379.519V178H380.715ZM380.715 16.5381V17.7341L406.119 17.7341V16.5381V15.3421L380.715 15.3421V16.5381ZM406.119 16.5381H404.923V113.415H406.119H407.315V16.5381H406.119ZM406.119 113.415L406.972 114.253L455.626 64.7385L454.773 63.9002L453.919 63.062L405.266 112.577L406.119 113.415ZM454.773 63.9002V65.0963H485.773V63.9002V62.7042H454.773V63.9002ZM485.773 63.9002L484.93 63.0523L443.596 104.171L444.439 105.019L445.283 105.867L486.617 64.7482L485.773 63.9002ZM444.439 105.019L443.433 105.666L490.365 178.647L491.371 178L492.377 177.353L445.445 104.372L444.439 105.019ZM491.371 178V176.804H461.877V178V179.196H491.371V178ZM461.877 178L462.887 177.359L427.796 122.032L426.786 122.672L425.776 123.313L460.867 178.641L461.877 178ZM426.786 122.672L425.94 121.827L405.273 142.494L406.119 143.339L406.964 144.185L427.632 123.518L426.786 122.672ZM406.119 143.339H404.923V178H406.119H407.315V143.339H406.119Z" fill="black" mask="url(#path-1-outside-1_2_35)"/>
<rect x="498.855" y="26.7392" width="43.0858" height="36.7598" rx="14.2007" fill="#FE4C01"/>
<rect x="498.855" y="26.7392" width="43.0858" height="36.7598" rx="14.2007" fill="url(#pattern0_2_35)"/>
<rect x="498.855" y="26.7392" width="43.0858" height="36.7598" rx="14.2007" stroke="#0A0A0A" stroke-width="1.19601"/>
<path d="M482.919 120.502L495.838 82.3667C498.586 74.2551 506.198 68.7969 514.762 68.7969C528.246 68.7969 537.859 81.8788 533.83 94.747L516.206 151.045C509.29 173.138 488.688 188.069 465.539 187.763L435.339 187.365C423.432 187.208 413.863 177.511 413.863 165.604C413.863 153.417 423.869 143.606 436.053 143.845L449.31 144.105C464.46 144.403 478.057 134.854 482.919 120.502Z" fill="#FE4C01"/>
<path d="M482.919 120.502L495.838 82.3667C498.586 74.2551 506.198 68.7969 514.762 68.7969C528.246 68.7969 537.859 81.8788 533.83 94.747L516.206 151.045C509.29 173.138 488.688 188.069 465.539 187.763L435.339 187.365C423.432 187.208 413.863 177.511 413.863 165.604C413.863 153.417 423.869 143.606 436.053 143.845L449.31 144.105C464.46 144.403 478.057 134.854 482.919 120.502Z" fill="url(#pattern1_2_35)"/>
<path d="M482.919 120.502L495.838 82.3667C498.586 74.2551 506.198 68.7969 514.762 68.7969C528.246 68.7969 537.859 81.8788 533.83 94.747L516.206 151.045C509.29 173.138 488.688 188.069 465.539 187.763L435.339 187.365C423.432 187.208 413.863 177.511 413.863 165.604C413.863 153.417 423.869 143.606 436.053 143.845L449.31 144.105C464.46 144.403 478.057 134.854 482.919 120.502Z" stroke="#0A0A0A" stroke-width="1.19601"/>
<path d="M661.67 171.161C661.67 183.036 652.044 192.662 640.169 192.662H626.531C622.189 192.662 618.669 189.142 618.669 184.799C618.669 180.457 615.149 176.937 610.807 176.937H585.92C581.578 176.937 578.058 180.457 578.058 184.799C578.058 189.142 574.538 192.662 570.195 192.662H556.558C544.683 192.662 535.058 183.036 535.058 171.162V89.4829C535.058 72.0002 549.23 57.8277 566.713 57.8277H630.015C647.497 57.8277 661.67 72.0002 661.67 89.4829V171.161ZM575.669 115.127C575.669 126.918 585.227 136.476 597.018 136.476H599.708C611.499 136.476 621.058 126.918 621.058 115.127C621.058 103.336 611.499 93.7779 599.708 93.7779H597.018C585.227 93.7779 575.669 103.336 575.669 115.127Z" fill="#0A0A0A"/>
<mask id="path-8-inside-2_2_35" fill="white">
<path d="M643.991 166.147C643.991 177.683 634.64 187.035 623.104 187.035H609.855C605.636 187.035 602.216 183.615 602.216 179.396C602.216 175.177 598.796 171.757 594.577 171.757H570.399C566.18 171.757 562.76 175.177 562.76 179.396C562.76 183.615 559.34 187.035 555.121 187.035H541.871C530.334 187.035 520.982 177.682 520.982 166.146V83.0023C520.982 68.1096 533.055 56.0367 547.947 56.0367L617.026 56.0367C631.919 56.0367 643.991 68.1096 643.991 83.0023V166.147ZM560.437 111.712C560.437 123.167 569.723 132.454 581.178 132.454H583.793C595.248 132.454 604.534 123.167 604.534 111.712C604.534 100.257 595.248 90.9703 583.793 90.9703H581.178C569.723 90.9703 560.437 100.257 560.437 111.712Z"/>
</mask>
<path d="M643.991 166.147C643.991 177.683 634.64 187.035 623.104 187.035H609.855C605.636 187.035 602.216 183.615 602.216 179.396C602.216 175.177 598.796 171.757 594.577 171.757H570.399C566.18 171.757 562.76 175.177 562.76 179.396C562.76 183.615 559.34 187.035 555.121 187.035H541.871C530.334 187.035 520.982 177.682 520.982 166.146V83.0023C520.982 68.1096 533.055 56.0367 547.947 56.0367L617.026 56.0367C631.919 56.0367 643.991 68.1096 643.991 83.0023V166.147ZM560.437 111.712C560.437 123.167 569.723 132.454 581.178 132.454H583.793C595.248 132.454 604.534 123.167 604.534 111.712C604.534 100.257 595.248 90.9703 583.793 90.9703H581.178C569.723 90.9703 560.437 100.257 560.437 111.712Z" fill="#277DF5"/>
<path d="M623.104 187.035V185.839H609.855V187.035V188.231H623.104V187.035ZM594.577 171.757V170.561H570.399V171.757V172.953H594.577V171.757ZM555.121 187.035V185.839H541.871V187.035V188.231H555.121V187.035ZM520.982 166.146H522.178V83.0023H520.982H519.786V166.146H520.982ZM547.947 56.0367V57.2328L617.026 57.2328V56.0367V54.8407L547.947 54.8407V56.0367ZM643.991 83.0023H642.795V166.147H643.991H645.187V83.0023H643.991ZM581.178 132.454V133.65H583.793V132.454V131.258H581.178V132.454ZM583.793 90.9703V89.7743H581.178V90.9703V92.1664H583.793V90.9703ZM581.178 90.9703V89.7743C569.063 89.7743 559.241 99.5962 559.241 111.712H560.437H561.633C561.633 100.917 570.384 92.1664 581.178 92.1664V90.9703ZM604.534 111.712H605.73C605.73 99.5962 595.909 89.7743 583.793 89.7743V90.9703V92.1664C594.588 92.1664 603.338 100.917 603.338 111.712H604.534ZM583.793 132.454V133.65C595.909 133.65 605.73 123.828 605.73 111.712H604.534H603.338C603.338 122.507 594.588 131.258 583.793 131.258V132.454ZM581.178 132.454V131.258C570.384 131.258 561.633 122.507 561.633 111.712H560.437H559.241C559.241 123.828 569.063 133.65 581.178 133.65V132.454ZM617.026 56.0367V57.2328C631.258 57.2328 642.795 68.7702 642.795 83.0023H643.991H645.187C645.187 67.4491 632.579 54.8407 617.026 54.8407V56.0367ZM520.982 83.0023H522.178C522.178 68.7702 533.715 57.2328 547.947 57.2328V56.0367V54.8407C532.394 54.8407 519.786 67.4491 519.786 83.0023H520.982ZM541.871 187.035V185.839C530.995 185.839 522.178 177.022 522.178 166.146H520.982H519.786C519.786 178.343 529.674 188.231 541.871 188.231V187.035ZM562.76 179.396H561.564C561.564 182.954 558.68 185.839 555.121 185.839V187.035V188.231C560.001 188.231 563.956 184.275 563.956 179.396H562.76ZM570.399 171.757V170.561C565.519 170.561 561.564 174.517 561.564 179.396H562.76H563.956C563.956 175.838 566.84 172.953 570.399 172.953V171.757ZM602.216 179.396H603.412C603.412 174.517 599.457 170.561 594.577 170.561V171.757V172.953C598.136 172.953 601.02 175.838 601.02 179.396H602.216ZM609.855 187.035V185.839C606.297 185.839 603.412 182.954 603.412 179.396H602.216H601.02C601.02 184.275 604.975 188.231 609.855 188.231V187.035ZM623.104 187.035V188.231C635.3 188.231 645.187 178.344 645.187 166.147H643.991H642.795C642.795 177.023 633.979 185.839 623.104 185.839V187.035Z" fill="#0A0A0A" mask="url(#path-8-inside-2_2_35)"/>
<path d="M628.623 175.347C631.837 157.653 635.051 139.96 637.956 128.279C640.862 116.599 643.361 111.468 646.167 106.524C651.688 96.7955 658.706 88.5252 665.009 82.1877C669.28 77.8941 676.009 74.038 683.4 70.5475C685.995 69.3217 686.863 70.7727 687.409 72.8236C690.259 83.5178 687.609 98.4068 686.07 107.232C685.071 112.957 683.281 125.918 681.747 143.056C681.117 150.097 681.463 153.825 689.5 147.512C697.538 141.198 713.429 124.743 724.115 114.32C734.801 103.897 739.8 100.005 746.839 95.4337C762.505 85.2614 773.432 80.0913 776.668 79.1128C780.717 77.8883 783.718 76.5151 785.071 76.6893C785.646 76.7635 785.531 77.9252 779.995 89.0855C774.46 100.246 763.39 121.655 757.241 134.276C746.503 156.316 748.013 167.283 749.453 170.599C750.29 172.528 752.872 173.733 755.661 174.537C761.167 174.103 765.322 172.489 768.014 171.513C769.813 170.714 772.491 169.299 775.25 167.84" stroke="#0A0A0A" stroke-width="35.8804" stroke-linecap="round"/>
<g filter="url(#filter0_iin_2_35)">
<path d="M628.623 175.347C631.837 157.653 635.051 139.96 637.956 128.279C640.862 116.599 643.361 111.468 646.167 106.524C651.688 96.7955 658.706 88.5252 665.009 82.1877C669.28 77.8941 676.009 74.038 683.4 70.5475C685.995 69.3217 686.863 70.7727 687.409 72.8236C690.259 83.5178 687.609 98.4068 686.07 107.232C685.071 112.957 683.281 125.918 681.747 143.056C681.117 150.097 681.463 153.825 689.5 147.512C697.538 141.198 713.429 124.743 724.115 114.32C734.801 103.897 739.8 100.005 746.839 95.4337C762.505 85.2614 773.432 80.0913 776.668 79.1128C780.717 77.8883 783.718 76.5151 785.071 76.6893C785.646 76.7635 785.531 77.9252 779.995 89.0855C774.46 100.246 763.39 121.655 757.241 134.276C746.503 156.316 748.013 167.283 749.453 170.599C750.29 172.528 752.872 173.733 755.661 174.537C761.167 174.103 765.322 172.489 768.014 171.513C769.813 170.714 772.491 169.299 775.25 167.84" stroke="url(#paint0_linear_2_35)" stroke-width="32.8861" stroke-linecap="round"/>
</g>
<defs>
<filter id="filter0_iin_2_35" x="612.177" y="50.3633" width="189.567" height="148.007" filterUnits="userSpaceOnUse" color-interpolation-filters="sRGB">
<feFlood flood-opacity="0" result="BackgroundImageFix"/>
<feBlend mode="normal" in="SourceGraphic" in2="BackgroundImageFix" result="shape"/>
<feColorMatrix in="SourceAlpha" type="matrix" values="0 0 0 0 0 0 0 0 0 0 0 0 0 0 0 0 0 0 127 0" result="hardAlpha"/>
<feOffset dy="6.57722"/>
<feGaussianBlur stdDeviation="3.28861"/>
<feComposite in2="hardAlpha" operator="arithmetic" k2="-1" k3="1"/>
<feColorMatrix type="matrix" values="0 0 0 0 1 0 0 0 0 0.595553 0 0 0 0 0.979778 0 0 0 0.9 0"/>
<feBlend mode="normal" in2="shape" result="effect1_innerShadow_2_35"/>
<feColorMatrix in="SourceAlpha" type="matrix" values="0 0 0 0 0 0 0 0 0 0 0 0 0 0 0 0 0 0 127 0" result="hardAlpha"/>
<feOffset dy="-3.28861"/>
<feGaussianBlur stdDeviation="12.3323"/>
<feComposite in2="hardAlpha" operator="arithmetic" k2="-1" k3="1"/>
<feColorMatrix type="matrix" values="0 0 0 0 0.748662 0 0 0 0 0.367552 0 0 0 0 0.925274 0 0 0 0.5 0"/>
<feBlend mode="normal" in2="effect1_innerShadow_2_35" result="effect2_innerShadow_2_35"/>
<feTurbulence type="fractalNoise" baseFrequency="1.2163189649581909 1.2163189649581909" stitchTiles="stitch" numOctaves="3" result="noise" seed="4726" />
<feColorMatrix in="noise" type="luminanceToAlpha" result="alphaNoise" />
<feComponentTransfer in="alphaNoise" result="coloredNoise1">
<feFuncA type="discrete" tableValues="1 1 1 1 1 1 1 1 1 1 1 1 1 1 1 1 1 1 1 1 1 1 1 1 1 1 1 1 1 1 1 1 1 1 1 1 1 1 1 1 1 1 1 1 1 1 1 1 1 1 1 0 0 0 0 0 0 0 0 0 0 0 0 0 0 0 0 0 0 0 0 0 0 0 0 0 0 0 0 0 0 0 0 0 0 0 0 0 0 0 0 0 0 0 0 0 0 0 0 0 "/>
</feComponentTransfer>
<feComposite operator="in" in2="effect2_innerShadow_2_35" in="coloredNoise1" result="noise1Clipped" />
<feComponentTransfer in="alphaNoise" result="coloredNoise2">
<feFuncA type="discrete" tableValues="0 0 0 0 0 0 0 0 0 0 0 0 0 0 0 0 0 0 0 0 0 0 0 0 0 0 0 0 0 0 0 0 0 0 0 0 0 0 0 0 0 0 0 0 0 0 0 0 0 1 1 1 1 1 1 1 1 1 1 1 1 1 1 1 1 1 1 1 1 1 1 1 1 1 1 1 1 1 1 1 1 1 1 1 1 1 1 1 1 1 1 1 1 1 1 1 1 1 1 1 "/>
</feComponentTransfer>
<feComposite operator="in" in2="effect2_innerShadow_2_35" in="coloredNoise2" result="noise2Clipped" />
<feFlood flood-color="rgba(207, 207, 207, 0.25)" result="color1Flood" />
<feComposite operator="in" in2="noise1Clipped" in="color1Flood" result="color1" />
<feFlood flood-color="rgba(255, 94, 217, 0.25)" result="color2Flood" />
<feComposite operator="in" in2="noise2Clipped" in="color2Flood" result="color2" />
<feMerge result="effect3_noise_2_35">
<feMergeNode in="effect2_innerShadow_2_35" />
<feMergeNode in="color1" />
<feMergeNode in="color2" />
</feMerge>
</filter>
<linearGradient id="paint0_linear_2_35" x1="706.962" y1="70.0975" x2="706.962" y2="175.347" gradientUnits="userSpaceOnUse">
<stop stop-color="#F86299"/>
<stop offset="1" stop-color="#DF0152"/>
</linearGradient>
<pattern id="pattern0_2_35" patternUnits="userSpaceOnUse" patternTransform="matrix(6.83668 0 0 6.83668 498.257 26.1412)" preserveAspectRatio="none" viewBox="0 0 33.2533 33.2533" width="1" height="1">
<g id="pattern0_2_35_inner">
<circle cx="9.55556" cy="9.55556" r="9.55556" fill="#F11C28"/>
</g>
</pattern><pattern id="pattern1_2_35" patternUnits="userSpaceOnUse" patternTransform="matrix(6.83668 0 0 6.83668 413.863 68.7969)" preserveAspectRatio="none" viewBox="0 0 33.2533 33.2533" width="1" height="1">
<g id="pattern1_2_35_inner">
<circle cx="9.55556" cy="9.55556" r="9.55556" fill="#F11C28"/>
</g>
</pattern></defs>
</svg>
