<svg width="961" height="266" viewBox="0 0 961 266" fill="none" xmlns="http://www.w3.org/2000/svg" xmlns:xlink="http://www.w3.org/1999/xlink">
<mask id="path-1-outside-1_823_1864" maskUnits="userSpaceOnUse" x="6" y="18" width="585" height="248" fill="black">
<rect fill="white" x="6" y="18" width="585" height="248"/>
<path d="M69.7524 216.861C51.2204 216.861 36.5492 212.743 25.7389 204.506C15.1001 196.098 9.35179 184.43 8.49383 169.501H37.8362C38.3509 176.708 41.3538 182.285 46.8448 186.232C52.5073 190.007 59.6284 191.894 68.208 191.894C75.9297 191.894 81.7639 190.521 85.7105 187.776C89.8287 184.859 91.8878 180.741 91.8878 175.421C91.8878 172.161 91.0299 169.587 89.3139 167.7C87.7696 165.64 85.7963 164.182 83.394 163.324C80.9917 162.294 76.9593 160.836 71.2967 158.948L53.2795 153.028C44.0135 149.94 36.4634 146.937 30.6293 144.02C24.9667 141.103 20.2479 137.156 16.4729 132.18C12.8694 127.032 11.0677 120.512 11.0677 112.618C11.0677 100.264 15.5291 90.4829 24.4519 83.276C33.5463 76.0691 46.1584 72.4656 62.2881 72.4656C78.2462 72.4656 91.2872 76.5839 101.411 84.8203C111.535 93.0568 117.455 104.811 119.171 120.083H90.3435C89.6571 112.533 86.74 106.87 81.5923 103.095C76.6161 99.3199 70.0956 97.4324 62.0307 97.4324C55.3386 97.4324 50.105 98.8051 46.33 101.551C42.7265 104.124 40.9248 107.728 40.9248 112.361C40.9248 115.621 41.9544 118.281 44.0135 120.34C46.0726 122.399 48.2175 123.858 50.4482 124.716C52.6789 125.574 56.7113 127.032 62.5455 129.091L79.0184 134.496C89.1423 137.928 97.2072 141.274 103.213 144.535C109.219 147.795 113.852 151.913 117.112 156.889C120.544 161.865 122.26 168.3 122.26 176.193C122.26 188.891 117.627 198.844 108.361 206.05C99.2663 213.257 86.3969 216.861 69.7524 216.861ZM118.656 264.478L118.656 76.5839H143.108L146.197 98.9767C150.83 90.9118 157.35 84.4771 165.758 79.6725C174.338 74.8679 183.947 72.4656 194.586 72.4656C206.426 72.4656 216.979 75.5543 226.245 81.7316C235.682 87.7374 242.975 96.1454 248.123 106.956C253.442 117.766 256.102 130.121 256.102 144.02C256.102 158.09 253.442 170.702 248.123 181.856C242.975 192.838 235.682 201.417 226.245 207.595C216.979 213.772 206.34 216.861 194.329 216.861C184.719 216.861 175.968 214.887 168.075 210.941C160.182 206.823 153.919 201.16 149.286 193.953V264.478H118.656ZM187.636 191.122C198.618 191.122 207.541 186.746 214.405 177.995C221.44 169.244 224.958 157.919 224.958 144.02C224.958 130.464 221.44 119.482 214.405 111.074C207.541 102.494 198.533 98.2045 187.379 98.2045C176.226 98.2045 167.045 102.409 159.838 110.817C152.803 119.225 149.286 130.035 149.286 143.248C149.286 152.514 150.916 160.836 154.176 168.214C157.436 175.421 161.983 181.084 167.818 185.202C173.652 189.149 180.258 191.122 187.636 191.122ZM299.074 215.831C283.287 215.831 270.675 212.314 261.238 205.278C251.972 198.071 247.339 188.205 247.339 175.679C247.339 161.265 252.658 151.141 263.297 145.307C274.107 139.473 288.263 135.526 305.766 133.467C307.31 133.295 311.943 132.78 319.665 131.922C327.558 131.065 333.221 129.692 336.653 127.804C340.084 125.745 341.8 123 341.8 119.568C341.629 112.876 339.055 107.556 334.079 103.61C329.102 99.4915 322.325 97.4324 313.745 97.4324C304.822 97.4324 297.358 99.6631 291.352 104.124C285.346 108.414 281.915 114.163 281.057 121.37H250.427C251.285 111.932 254.545 103.524 260.208 96.1454C265.871 88.5953 273.335 82.7612 282.601 78.643C292.038 74.5248 302.591 72.4656 314.26 72.4656C332.277 72.4656 346.262 76.9271 356.214 85.8499C366.338 94.7727 371.4 106.698 371.4 121.627V183.4C371.4 187.347 373.631 189.32 378.092 189.32H385.556V213H371.143C364.279 213 358.702 211.627 354.412 208.882C350.294 206.136 347.634 202.19 346.433 197.042C345.919 195.498 345.49 193.953 345.146 192.409C336.738 208.024 321.381 215.831 299.074 215.831ZM305.251 191.894C315.89 191.894 324.641 189.149 331.505 183.658C338.368 178.167 341.8 170.874 341.8 161.78V142.733C339.57 146.336 335.88 148.91 330.733 150.454C325.585 151.827 318.378 153.114 309.112 154.315C298.473 155.516 290.58 157.318 285.432 159.72C280.456 162.123 277.968 166.584 277.968 173.105C277.968 179.11 280.284 183.743 284.917 187.004C289.722 190.264 296.5 191.894 305.251 191.894ZM379.86 213V76.5839H404.312L407.915 103.352C416.838 84.4771 432.624 75.0395 455.275 75.0395H460.422V104.639H455.275C441.032 104.639 429.965 108.243 422.071 115.45C414.178 122.656 410.232 132.695 410.232 145.564V213H379.86ZM485.55 213H455.178V19.9583L485.55 19.9583V135.783L543.72 76.5839H580.784L531.365 125.745L587.476 213H552.214L510.259 146.851L485.55 171.56V213Z"/>
</mask>
<path d="M69.7524 216.861C51.2204 216.861 36.5492 212.743 25.7389 204.506C15.1001 196.098 9.35179 184.43 8.49383 169.501H37.8362C38.3509 176.708 41.3538 182.285 46.8448 186.232C52.5073 190.007 59.6284 191.894 68.208 191.894C75.9297 191.894 81.7639 190.521 85.7105 187.776C89.8287 184.859 91.8878 180.741 91.8878 175.421C91.8878 172.161 91.0299 169.587 89.3139 167.7C87.7696 165.64 85.7963 164.182 83.394 163.324C80.9917 162.294 76.9593 160.836 71.2967 158.948L53.2795 153.028C44.0135 149.94 36.4634 146.937 30.6293 144.02C24.9667 141.103 20.2479 137.156 16.4729 132.18C12.8694 127.032 11.0677 120.512 11.0677 112.618C11.0677 100.264 15.5291 90.4829 24.4519 83.276C33.5463 76.0691 46.1584 72.4656 62.2881 72.4656C78.2462 72.4656 91.2872 76.5839 101.411 84.8203C111.535 93.0568 117.455 104.811 119.171 120.083H90.3435C89.6571 112.533 86.74 106.87 81.5923 103.095C76.6161 99.3199 70.0956 97.4324 62.0307 97.4324C55.3386 97.4324 50.105 98.8051 46.33 101.551C42.7265 104.124 40.9248 107.728 40.9248 112.361C40.9248 115.621 41.9544 118.281 44.0135 120.34C46.0726 122.399 48.2175 123.858 50.4482 124.716C52.6789 125.574 56.7113 127.032 62.5455 129.091L79.0184 134.496C89.1423 137.928 97.2072 141.274 103.213 144.535C109.219 147.795 113.852 151.913 117.112 156.889C120.544 161.865 122.26 168.3 122.26 176.193C122.26 188.891 117.627 198.844 108.361 206.05C99.2663 213.257 86.3969 216.861 69.7524 216.861ZM118.656 264.478L118.656 76.5839H143.108L146.197 98.9767C150.83 90.9118 157.35 84.4771 165.758 79.6725C174.338 74.8679 183.947 72.4656 194.586 72.4656C206.426 72.4656 216.979 75.5543 226.245 81.7316C235.682 87.7374 242.975 96.1454 248.123 106.956C253.442 117.766 256.102 130.121 256.102 144.02C256.102 158.09 253.442 170.702 248.123 181.856C242.975 192.838 235.682 201.417 226.245 207.595C216.979 213.772 206.34 216.861 194.329 216.861C184.719 216.861 175.968 214.887 168.075 210.941C160.182 206.823 153.919 201.16 149.286 193.953V264.478H118.656ZM187.636 191.122C198.618 191.122 207.541 186.746 214.405 177.995C221.44 169.244 224.958 157.919 224.958 144.02C224.958 130.464 221.44 119.482 214.405 111.074C207.541 102.494 198.533 98.2045 187.379 98.2045C176.226 98.2045 167.045 102.409 159.838 110.817C152.803 119.225 149.286 130.035 149.286 143.248C149.286 152.514 150.916 160.836 154.176 168.214C157.436 175.421 161.983 181.084 167.818 185.202C173.652 189.149 180.258 191.122 187.636 191.122ZM299.074 215.831C283.287 215.831 270.675 212.314 261.238 205.278C251.972 198.071 247.339 188.205 247.339 175.679C247.339 161.265 252.658 151.141 263.297 145.307C274.107 139.473 288.263 135.526 305.766 133.467C307.31 133.295 311.943 132.78 319.665 131.922C327.558 131.065 333.221 129.692 336.653 127.804C340.084 125.745 341.8 123 341.8 119.568C341.629 112.876 339.055 107.556 334.079 103.61C329.102 99.4915 322.325 97.4324 313.745 97.4324C304.822 97.4324 297.358 99.6631 291.352 104.124C285.346 108.414 281.915 114.163 281.057 121.37H250.427C251.285 111.932 254.545 103.524 260.208 96.1454C265.871 88.5953 273.335 82.7612 282.601 78.643C292.038 74.5248 302.591 72.4656 314.26 72.4656C332.277 72.4656 346.262 76.9271 356.214 85.8499C366.338 94.7727 371.4 106.698 371.4 121.627V183.4C371.4 187.347 373.631 189.32 378.092 189.32H385.556V213H371.143C364.279 213 358.702 211.627 354.412 208.882C350.294 206.136 347.634 202.19 346.433 197.042C345.919 195.498 345.49 193.953 345.146 192.409C336.738 208.024 321.381 215.831 299.074 215.831ZM305.251 191.894C315.89 191.894 324.641 189.149 331.505 183.658C338.368 178.167 341.8 170.874 341.8 161.78V142.733C339.57 146.336 335.88 148.91 330.733 150.454C325.585 151.827 318.378 153.114 309.112 154.315C298.473 155.516 290.58 157.318 285.432 159.72C280.456 162.123 277.968 166.584 277.968 173.105C277.968 179.11 280.284 183.743 284.917 187.004C289.722 190.264 296.5 191.894 305.251 191.894ZM379.86 213V76.5839H404.312L407.915 103.352C416.838 84.4771 432.624 75.0395 455.275 75.0395H460.422V104.639H455.275C441.032 104.639 429.965 108.243 422.071 115.45C414.178 122.656 410.232 132.695 410.232 145.564V213H379.86ZM485.55 213H455.178V19.9583L485.55 19.9583V135.783L543.72 76.5839H580.784L531.365 125.745L587.476 213H552.214L510.259 146.851L485.55 171.56V213Z" fill="#FF7C35"/>
<path d="M25.7389 204.506L24.8522 205.628L24.8622 205.636L24.8723 205.644L25.7389 204.506ZM8.49383 169.501V168.071H6.97935L7.06625 169.583L8.49383 169.501ZM37.8362 169.501L39.2625 169.399L39.1676 168.071H37.8362V169.501ZM46.8448 186.232L46.0102 187.393L46.0306 187.407L46.0516 187.421L46.8448 186.232ZM85.7105 187.776L86.5271 188.95L86.537 188.943L85.7105 187.776ZM89.3139 167.7L88.17 168.557L88.2105 168.611L88.2559 168.661L89.3139 167.7ZM83.394 163.324L82.8307 164.638L82.8714 164.656L82.913 164.671L83.394 163.324ZM71.2967 158.948L71.7489 157.592L71.7431 157.59L71.2967 158.948ZM53.2795 153.028L52.8273 154.385L52.8331 154.387L53.2795 153.028ZM30.6293 144.02L29.9744 145.291L29.9821 145.295L29.9898 145.299L30.6293 144.02ZM16.4729 132.18L15.3014 133L15.3171 133.022L15.3337 133.044L16.4729 132.18ZM24.4519 83.276L23.5638 82.1552L23.5535 82.1636L24.4519 83.276ZM101.411 84.8203L102.314 83.7111V83.7111L101.411 84.8203ZM119.171 120.083V121.513H120.771L120.592 119.923L119.171 120.083ZM90.3435 120.083L88.9194 120.212L89.0376 121.513H90.3435V120.083ZM81.5923 103.095L80.728 104.234L80.7373 104.241L80.7466 104.248L81.5923 103.095ZM46.33 101.551L47.1612 102.714L47.171 102.707L46.33 101.551ZM44.0135 120.34L43.0024 121.351V121.351L44.0135 120.34ZM62.5455 129.091L62.0696 130.44L62.0846 130.445L62.0997 130.45L62.5455 129.091ZM79.0184 134.496L79.4775 133.142L79.4642 133.138L79.0184 134.496ZM103.213 144.535L102.531 145.791V145.791L103.213 144.535ZM117.112 156.889L115.916 157.673L115.925 157.687L115.935 157.701L117.112 156.889ZM108.361 206.05L107.483 204.922L107.473 204.93L108.361 206.05ZM69.7524 216.861V215.431C51.4211 215.431 37.0901 211.357 26.6055 203.369L25.7389 204.506L24.8723 205.644C36.0083 214.128 51.0196 218.291 69.7524 218.291V216.861ZM25.7389 204.506L26.6255 203.384C16.3425 195.257 10.7586 183.987 9.92141 169.419L8.49383 169.501L7.06625 169.583C7.94496 184.873 13.8578 196.939 24.8522 205.628L25.7389 204.506ZM8.49383 169.501V170.931H37.8362V169.501V168.071H8.49383V169.501ZM37.8362 169.501L36.4099 169.603C36.9525 177.2 40.1485 183.18 46.0102 187.393L46.8448 186.232L47.6793 185.07C42.5591 181.39 39.7494 176.216 39.2625 169.399L37.8362 169.501ZM46.8448 186.232L46.0516 187.421C52.0035 191.389 59.4196 193.324 68.208 193.324V191.894V190.464C59.8372 190.464 53.0111 188.624 47.638 185.042L46.8448 186.232ZM68.208 191.894V193.324C76.0594 193.324 82.2353 191.935 86.5271 188.95L85.7105 187.776L84.8939 186.602C81.2924 189.107 75.8 190.464 68.208 190.464V191.894ZM85.7105 187.776L86.537 188.943C91.0572 185.741 93.3178 181.175 93.3178 175.421H91.8878H90.4579C90.4579 180.306 88.6002 183.977 84.884 186.609L85.7105 187.776ZM91.8878 175.421H93.3178C93.3178 171.907 92.3881 168.955 90.372 166.738L89.3139 167.7L88.2559 168.661C89.6716 170.219 90.4579 172.414 90.4579 175.421H91.8878ZM89.3139 167.7L90.4579 166.842C88.7469 164.56 86.5439 162.93 83.8749 161.977L83.394 163.324L82.913 164.671C85.0487 165.433 86.7923 166.721 88.17 168.557L89.3139 167.7ZM83.394 163.324L83.9573 162.01C81.4956 160.955 77.4139 159.48 71.7489 157.592L71.2967 158.948L70.8445 160.305C76.5047 162.192 80.4878 163.634 82.8307 164.638L83.394 163.324ZM71.2967 158.948L71.7431 157.59L53.7259 151.67L53.2795 153.028L52.8331 154.387L70.8504 160.307L71.2967 158.948ZM53.2795 153.028L53.7317 151.672C44.5017 148.595 37.0206 145.617 31.2688 142.741L30.6293 144.02L29.9898 145.299C35.9062 148.257 43.5253 151.284 52.8273 154.385L53.2795 153.028ZM30.6293 144.02L31.2841 142.749C25.8075 139.927 21.2555 136.118 17.6121 131.316L16.4729 132.18L15.3337 133.044C19.2404 138.194 24.1259 142.278 29.9744 145.291L30.6293 144.02ZM16.4729 132.18L17.6443 131.36C14.2478 126.508 12.4977 120.294 12.4977 112.618H11.0677H9.63778C9.63778 120.729 11.4911 127.556 15.3014 133L16.4729 132.18ZM11.0677 112.618H12.4977C12.4977 100.658 16.7923 91.3007 25.3504 84.3884L24.4519 83.276L23.5535 82.1636C14.2659 89.665 9.63778 99.8698 9.63778 112.618H11.0677ZM24.4519 83.276L25.3401 84.3967C34.0993 77.4554 46.357 73.8956 62.2881 73.8956V72.4656V71.0357C45.9598 71.0357 32.9934 74.6828 23.5638 82.1553L24.4519 83.276ZM62.2881 72.4656V73.8956C77.9931 73.8956 90.6929 77.9437 100.509 85.9295L101.411 84.8203L102.314 83.7111C91.8816 75.224 78.4993 71.0357 62.2881 71.0357V72.4656ZM101.411 84.8203L100.509 85.9295C110.291 93.8881 116.068 105.272 117.75 120.242L119.171 120.083L120.592 119.923C118.842 104.35 112.779 92.2254 102.314 83.7111L101.411 84.8203ZM119.171 120.083V118.653H90.3435V120.083V121.513H119.171V120.083ZM90.3435 120.083L91.7675 119.953C91.0517 112.079 87.9787 106.005 82.4379 101.942L81.5923 103.095L80.7466 104.248C85.5014 107.735 88.2625 112.986 88.9194 120.212L90.3435 120.083ZM81.5923 103.095L82.4565 101.956C77.1676 97.9434 70.3163 96.0024 62.0307 96.0024V97.4324V98.8623C69.8749 98.8623 76.0646 100.696 80.728 104.234L81.5923 103.095ZM62.0307 97.4324V96.0024C55.1627 96.0024 49.5938 97.4088 45.4889 100.394L46.33 101.551L47.171 102.707C50.6162 100.201 55.5145 98.8623 62.0307 98.8623V97.4324ZM46.33 101.551L45.4989 100.387C41.4996 103.244 39.4949 107.291 39.4949 112.361H40.9248H42.3548C42.3548 108.165 43.9535 105.005 47.1611 102.714L46.33 101.551ZM40.9248 112.361H39.4949C39.4949 115.951 40.642 118.991 43.0024 121.351L44.0135 120.34L45.0246 119.329C43.2668 117.571 42.3548 115.292 42.3548 112.361H40.9248ZM44.0135 120.34L43.0024 121.351C45.1728 123.521 47.4813 125.107 49.9349 126.05L50.4482 124.716L50.9615 123.381C48.9537 122.609 46.9725 121.277 45.0246 119.329L44.0135 120.34ZM50.4482 124.716L49.9349 126.05C52.1866 126.916 56.2365 128.381 62.0696 130.44L62.5455 129.091L63.0214 127.743C57.1862 125.683 53.1713 124.231 50.9615 123.381L50.4482 124.716ZM62.5455 129.091L62.0997 130.45L78.5726 135.855L79.0184 134.496L79.4642 133.138L62.9913 127.733L62.5455 129.091ZM79.0184 134.496L78.5593 135.851C88.6441 139.269 96.6246 142.585 102.531 145.791L103.213 144.535L103.895 143.278C97.7898 139.963 89.6406 136.587 79.4774 133.142L79.0184 134.496ZM103.213 144.535L102.531 145.791C108.36 148.956 112.803 152.922 115.916 157.673L117.112 156.889L118.308 156.106C114.9 150.904 110.077 146.634 103.895 143.278L103.213 144.535ZM117.112 156.889L115.935 157.701C119.158 162.375 120.83 168.502 120.83 176.193H122.26H123.69C123.69 168.098 121.929 161.356 118.289 156.077L117.112 156.889ZM122.26 176.193H120.83C120.83 188.491 116.369 198.01 107.483 204.922L108.361 206.05L109.239 207.179C118.884 199.677 123.69 189.291 123.69 176.193H122.26ZM108.361 206.05L107.473 204.93C98.7203 211.866 86.2108 215.431 69.7524 215.431V216.861V218.291C86.5829 218.291 99.8123 214.649 109.249 207.171L108.361 206.05ZM118.656 264.478H117.226V265.908H118.656V264.478ZM118.656 76.5839V75.1539H117.226V76.5839H118.656ZM143.108 76.5839L144.525 76.3885L144.354 75.1539H143.108V76.5839ZM146.197 98.9767L144.78 99.1721L145.352 103.318L147.437 99.689L146.197 98.9767ZM165.758 79.6725L165.06 78.4249L165.049 78.431L165.758 79.6725ZM226.245 81.7316L225.452 82.9214L225.464 82.9299L225.477 82.938L226.245 81.7316ZM248.123 106.956L246.832 107.571L246.836 107.579L246.84 107.587L248.123 106.956ZM248.123 181.856L246.832 181.24L246.828 181.249L248.123 181.856ZM226.245 207.595L225.462 206.398L225.452 206.405L226.245 207.595ZM168.075 210.941L167.413 212.209L167.424 212.214L167.435 212.22L168.075 210.941ZM149.286 193.953L150.488 193.18L147.856 189.085V193.953H149.286ZM149.286 264.478V265.908H150.715V264.478H149.286ZM214.405 177.995L213.29 177.099L213.285 177.106L213.28 177.113L214.405 177.995ZM214.405 111.074L213.288 111.967L213.298 111.98L213.308 111.992L214.405 111.074ZM159.838 110.817L158.753 109.886L158.747 109.892L158.742 109.899L159.838 110.817ZM154.176 168.214L152.868 168.792L152.873 168.804L154.176 168.214ZM167.818 185.202L166.993 186.37L167.005 186.378L167.016 186.386L167.818 185.202ZM118.656 264.478H120.086L120.086 76.5839H118.656H117.226L117.226 264.478H118.656ZM118.656 76.5839V78.0138H143.108V76.5839V75.1539H118.656V76.5839ZM143.108 76.5839L141.692 76.7792L144.78 99.1721L146.197 98.9767L147.613 98.7813L144.525 76.3885L143.108 76.5839ZM146.197 98.9767L147.437 99.689C151.938 91.8539 158.271 85.598 166.468 80.9141L165.758 79.6725L165.049 78.431C156.43 83.3563 149.722 89.9698 144.957 98.2644L146.197 98.9767ZM165.758 79.6725L166.457 80.9202C174.806 76.2448 184.171 73.8956 194.586 73.8956V72.4656V71.0357C183.723 71.0357 173.87 73.4911 165.06 78.4249L165.758 79.6725ZM194.586 72.4656V73.8956C206.162 73.8956 216.436 76.9108 225.452 82.9214L226.245 81.7316L227.038 80.5419C217.522 74.1979 206.689 71.0357 194.586 71.0357V72.4656ZM226.245 81.7316L225.477 82.938C234.672 88.7894 241.791 96.9848 246.832 107.571L248.123 106.956L249.414 106.341C244.159 95.306 236.693 86.6854 227.012 80.5252L226.245 81.7316ZM248.123 106.956L246.84 107.587C252.049 118.173 254.672 130.306 254.672 144.02H256.102H257.532C257.532 129.935 254.836 117.359 249.406 106.324L248.123 106.956ZM256.102 144.02H254.672C254.672 157.907 252.048 170.304 246.832 181.24L248.123 181.856L249.413 182.471C254.837 171.101 257.532 158.274 257.532 144.02H256.102ZM248.123 181.856L246.828 181.249C241.784 192.01 234.661 200.377 225.462 206.398L226.245 207.595L227.028 208.791C236.704 202.458 244.166 193.666 249.418 182.463L248.123 181.856ZM226.245 207.595L225.452 206.405C216.439 212.413 206.081 215.431 194.329 215.431V216.861V218.291C206.599 218.291 217.518 215.131 227.038 208.785L226.245 207.595ZM194.329 216.861V215.431C184.921 215.431 176.392 213.501 168.714 209.662L168.075 210.941L167.435 212.22C175.544 216.274 184.518 218.291 194.329 218.291V216.861ZM168.075 210.941L168.736 209.673C161.054 205.665 154.982 200.169 150.488 193.18L149.286 193.953L148.083 194.726C152.855 202.151 159.309 207.98 167.413 212.209L168.075 210.941ZM149.286 193.953H147.856V264.478H149.286H150.715V193.953H149.286ZM149.286 264.478V263.048H118.656V264.478V265.908H149.286V264.478ZM187.636 191.122V192.552C199.064 192.552 208.399 187.969 215.53 178.878L214.405 177.995L213.28 177.113C206.683 185.523 198.173 189.692 187.636 189.692V191.122ZM214.405 177.995L215.519 178.891C222.804 169.83 226.388 158.165 226.388 144.02H224.958H223.528C223.528 157.672 220.077 168.658 213.29 177.099L214.405 177.995ZM224.958 144.02H226.388C226.388 130.21 222.799 118.878 215.502 110.156L214.405 111.074L213.308 111.992C220.081 120.086 223.528 130.717 223.528 144.02H224.958ZM214.405 111.074L215.522 110.181C208.382 101.256 198.959 96.7746 187.379 96.7746V98.2045V99.6345C198.106 99.6345 206.701 103.733 213.288 111.967L214.405 111.074ZM187.379 98.2045V96.7746C175.812 96.7746 166.234 101.158 158.753 109.886L159.838 110.817L160.924 111.747C167.857 103.659 176.64 99.6345 187.379 99.6345V98.2045ZM159.838 110.817L158.742 109.899C151.449 118.614 147.856 129.771 147.856 143.248H149.286H150.715C150.715 130.299 154.157 119.835 160.935 111.734L159.838 110.817ZM149.286 143.248H147.856C147.856 152.683 149.516 161.207 152.868 168.792L154.176 168.214L155.484 167.636C152.315 160.465 150.715 152.344 150.715 143.248H149.286ZM154.176 168.214L152.873 168.804C156.227 176.217 160.929 182.09 166.993 186.37L167.818 185.202L168.642 184.034C163.038 180.078 158.646 174.625 155.479 167.625L154.176 168.214ZM167.818 185.202L167.016 186.386C173.099 190.501 179.987 192.552 187.636 192.552V191.122V189.692C180.529 189.692 174.205 187.796 168.619 184.018L167.818 185.202ZM261.238 205.278L260.36 206.407L260.371 206.416L260.383 206.425L261.238 205.278ZM263.297 145.307L262.618 144.048L262.609 144.053L263.297 145.307ZM305.766 133.467L305.608 132.046L305.599 132.047L305.766 133.467ZM319.665 131.922L319.51 130.501L319.507 130.501L319.665 131.922ZM336.653 127.804L337.342 129.057L337.365 129.044L337.388 129.03L336.653 127.804ZM341.8 119.568H343.23V119.549L343.23 119.531L341.8 119.568ZM334.079 103.61L333.167 104.711L333.178 104.721L333.19 104.73L334.079 103.61ZM291.352 104.124L292.183 105.288L292.194 105.28L292.205 105.272L291.352 104.124ZM281.057 121.37V122.799H282.326L282.476 121.539L281.057 121.37ZM250.427 121.37L249.003 121.24L248.861 122.799H250.427V121.37ZM260.208 96.1454L261.342 97.016L261.347 97.0097L261.352 97.0034L260.208 96.1454ZM282.601 78.643L282.029 77.3323L282.02 77.3363L282.601 78.643ZM356.214 85.8499L355.26 86.9146L355.269 86.9226L356.214 85.8499ZM385.556 189.32H386.986V187.89H385.556V189.32ZM385.556 213V214.43H386.986V213H385.556ZM354.412 208.882L353.619 210.072L353.63 210.079L353.642 210.086L354.412 208.882ZM346.433 197.042L347.826 196.717L347.811 196.652L347.79 196.59L346.433 197.042ZM345.146 192.409L346.542 192.099L345.709 188.348L343.887 191.731L345.146 192.409ZM331.505 183.658L332.398 184.774V184.774L331.505 183.658ZM341.8 142.733H343.23V137.706L340.584 141.98L341.8 142.733ZM330.733 150.454L331.101 151.836L331.122 151.83L331.143 151.824L330.733 150.454ZM309.112 154.315L309.272 155.736L309.284 155.735L309.296 155.733L309.112 154.315ZM285.432 159.72L284.827 158.425L284.819 158.429L284.81 158.433L285.432 159.72ZM284.917 187.004L284.094 188.173L284.104 188.18L284.114 188.187L284.917 187.004ZM299.074 215.831V214.401C283.491 214.401 271.211 210.929 262.092 204.132L261.238 205.278L260.383 206.425C270.14 213.698 283.083 217.261 299.074 217.261V215.831ZM261.238 205.278L262.115 204.15C253.224 197.234 248.769 187.798 248.769 175.679H247.339H245.909C245.909 188.612 250.719 198.909 260.36 206.407L261.238 205.278ZM247.339 175.679H248.769C248.769 161.67 253.898 152.092 263.984 146.56L263.297 145.307L262.609 144.053C251.418 150.19 245.909 160.86 245.909 175.679H247.339ZM263.297 145.307L263.976 146.565C274.574 140.845 288.538 136.933 305.933 134.887L305.766 133.467L305.599 132.047C287.989 134.118 273.64 138.1 262.618 144.048L263.297 145.307ZM305.766 133.467L305.924 134.888C307.468 134.716 312.101 134.202 319.823 133.344L319.665 131.922L319.507 130.501C311.785 131.359 307.152 131.874 305.608 132.046L305.766 133.467ZM319.665 131.922L319.819 133.344C327.747 132.482 333.649 131.088 337.342 129.057L336.653 127.804L335.963 126.551C332.793 128.295 327.369 129.647 319.51 130.501L319.665 131.922ZM336.653 127.804L337.388 129.03C341.166 126.764 343.23 123.593 343.23 119.568H341.8H340.37C340.37 122.406 339.003 124.727 335.917 126.578L336.653 127.804ZM341.8 119.568L343.23 119.531C343.048 112.442 340.295 106.715 334.967 102.489L334.079 103.61L333.19 104.73C337.814 108.398 340.209 113.31 340.371 119.604L341.8 119.568ZM334.079 103.61L334.99 102.508C329.684 98.1167 322.547 96.0024 313.745 96.0024V97.4324V98.8623C322.102 98.8623 328.521 100.866 333.167 104.711L334.079 103.61ZM313.745 97.4324V96.0024C304.576 96.0024 296.796 98.2988 290.499 102.977L291.352 104.124L292.205 105.272C297.919 101.027 305.068 98.8623 313.745 98.8623V97.4324ZM291.352 104.124L290.521 102.961C284.194 107.48 280.543 113.586 279.637 121.2L281.057 121.37L282.476 121.539C283.286 114.739 286.499 109.348 292.183 105.288L291.352 104.124ZM281.057 121.37V119.94H250.427V121.37V122.799H281.057V121.37ZM250.427 121.37L251.851 121.499C252.685 112.325 255.848 104.176 261.342 97.016L260.208 96.1454L259.074 95.2748C253.243 102.872 249.885 111.538 249.003 121.24L250.427 121.37ZM260.208 96.1454L261.352 97.0034C266.857 89.6629 274.121 83.9764 283.182 79.9497L282.601 78.643L282.02 77.3363C272.548 81.546 264.884 87.5278 259.064 95.2875L260.208 96.1454ZM282.601 78.643L283.173 79.9536C292.407 75.9239 302.762 73.8956 314.26 73.8956V72.4656V71.0357C302.421 71.0357 291.669 73.1256 282.029 77.3324L282.601 78.643ZM314.26 72.4656V73.8956C332.049 73.8956 345.649 78.2984 355.26 86.9146L356.214 85.8499L357.169 84.7852C346.874 75.5558 332.505 71.0357 314.26 71.0357V72.4656ZM356.214 85.8499L355.269 86.9226C365.05 95.5433 369.97 107.06 369.97 121.627H371.4H372.83C372.83 106.337 367.626 94.0021 357.16 84.7771L356.214 85.8499ZM371.4 121.627H369.97V183.4H371.4H372.83V121.627H371.4ZM371.4 183.4H369.97C369.97 185.643 370.612 187.572 372.126 188.911C373.606 190.221 375.681 190.75 378.092 190.75V189.32V187.89C376.042 187.89 374.771 187.433 374.02 186.769C373.304 186.135 372.83 185.105 372.83 183.4H371.4ZM378.092 189.32V190.75H385.556V189.32V187.89H378.092V189.32ZM385.556 189.32H384.127V213H385.556H386.986V189.32H385.556ZM385.556 213V211.57H371.143V213V214.43H385.556V213ZM371.143 213V211.57C364.46 211.57 359.176 210.233 355.183 207.677L354.412 208.882L353.642 210.086C358.229 213.022 364.098 214.43 371.143 214.43V213ZM354.412 208.882L355.206 207.692C351.412 205.163 348.951 201.537 347.826 196.717L346.433 197.042L345.041 197.367C346.318 202.842 349.177 207.11 353.619 210.072L354.412 208.882ZM346.433 197.042L347.79 196.59C347.29 195.091 346.874 193.594 346.542 192.099L345.146 192.409L343.75 192.719C344.105 194.313 344.547 195.904 345.077 197.494L346.433 197.042ZM345.146 192.409L343.887 191.731C335.796 206.757 321.014 214.401 299.074 214.401V215.831V217.261C321.747 217.261 337.68 209.29 346.405 193.087L345.146 192.409ZM305.251 191.894V193.324C316.144 193.324 325.231 190.508 332.398 184.774L331.505 183.658L330.611 182.541C324.051 187.789 315.636 190.464 305.251 190.464V191.894ZM331.505 183.658L332.398 184.774C339.614 179.001 343.23 171.291 343.23 161.78H341.8L340.37 161.78C340.37 170.457 337.123 177.332 330.611 182.541L331.505 183.658ZM341.8 161.78H343.23V142.733H341.8L340.37 142.733V161.78L341.8 161.78ZM341.8 142.733L340.584 141.98C338.583 145.213 335.227 147.613 330.322 149.085L330.733 150.454L331.143 151.824C336.533 150.207 340.556 147.459 343.016 143.485L341.8 142.733ZM330.733 150.454L330.364 149.073C325.306 150.422 318.171 151.699 308.928 152.897L309.112 154.315L309.296 155.733C318.585 154.529 325.864 153.233 331.101 151.836L330.733 150.454ZM309.112 154.315L308.952 152.894C298.27 154.1 290.19 155.922 284.827 158.425L285.432 159.72L286.037 161.016C290.97 158.714 298.677 156.933 309.272 155.736L309.112 154.315ZM285.432 159.72L284.81 158.433C282.08 159.751 279.984 161.663 278.585 164.172C277.194 166.666 276.538 169.667 276.538 173.105H277.968H279.398C279.398 170.022 279.986 167.531 281.083 165.565C282.172 163.612 283.808 162.092 286.054 161.008L285.432 159.72ZM277.968 173.105H276.538C276.538 179.543 279.055 184.627 284.094 188.173L284.917 187.004L285.74 185.834C281.514 182.86 279.398 178.678 279.398 173.105H277.968ZM284.917 187.004L284.114 188.187C289.248 191.67 296.35 193.324 305.251 193.324V191.894V190.464C296.65 190.464 290.196 188.857 285.72 185.82L284.917 187.004ZM379.86 213H378.43V214.43H379.86V213ZM379.86 76.5839V75.1539H378.43V76.5839H379.86ZM404.312 76.5839L405.729 76.3931L405.562 75.1539H404.312V76.5839ZM407.915 103.352L406.498 103.543L407.143 108.332L409.208 103.963L407.915 103.352ZM460.422 75.0395H461.852V73.6096H460.422V75.0395ZM460.422 104.639V106.069H461.852V104.639H460.422ZM422.071 115.45L423.036 116.506V116.506L422.071 115.45ZM410.232 213V214.43H411.662V213H410.232ZM379.86 213H381.29V76.5839H379.86H378.43V213H379.86ZM379.86 76.5839V78.0138H404.312V76.5839V75.1539H379.86V76.5839ZM404.312 76.5839L402.894 76.7746L406.498 103.543L407.915 103.352L409.332 103.162L405.729 76.3931L404.312 76.5839ZM407.915 103.352L409.208 103.963C413.565 94.7463 419.563 87.8994 427.181 83.3451C434.806 78.7864 444.148 76.4695 455.275 76.4695V75.0395V73.6096C443.751 73.6096 433.874 76.0115 425.713 80.8904C417.545 85.7737 411.188 93.0831 406.622 102.741L407.915 103.352ZM455.275 75.0395V76.4695H460.422V75.0395V73.6096H455.275V75.0395ZM460.422 75.0395H458.992V104.639H460.422H461.852V75.0395H460.422ZM460.422 104.639V103.209H455.275V104.639V106.069H460.422V104.639ZM455.275 104.639V103.209C440.797 103.209 429.341 106.875 421.107 114.394L422.071 115.45L423.036 116.506C430.588 109.61 441.268 106.069 455.275 106.069V104.639ZM422.071 115.45L421.107 114.394C412.857 121.926 408.802 132.382 408.802 145.564H410.232H411.662C411.662 133.007 415.499 123.387 423.036 116.506L422.071 115.45ZM410.232 145.564H408.802V213H410.232H411.662V145.564H410.232ZM410.232 213V211.57H379.86V213V214.43H410.232V213ZM485.55 213V214.43H486.98V213H485.55ZM455.178 213H453.748V214.43H455.178V213ZM455.178 19.9583V18.5284H453.748V19.9583H455.178ZM485.55 19.9583H486.98V18.5284H485.55V19.9583ZM485.55 135.783H484.12V139.279L486.57 136.786L485.55 135.783ZM543.72 76.5839V75.1539H543.12L542.7 75.5817L543.72 76.5839ZM580.784 76.5839L581.792 77.5976L584.249 75.1539H580.784V76.5839ZM531.365 125.745L530.357 124.731L529.537 125.546L530.162 126.519L531.365 125.745ZM587.476 213V214.43H590.096L588.679 212.227L587.476 213ZM552.214 213L551.006 213.766L551.427 214.43H552.214V213ZM510.259 146.851L511.467 146.085L510.511 144.577L509.248 145.84L510.259 146.851ZM485.55 171.56L484.539 170.549L484.12 170.968V171.56H485.55ZM485.55 213V211.57H455.178V213V214.43H485.55V213ZM455.178 213H456.608V19.9583H455.178H453.748V213H455.178ZM455.178 19.9583V21.3882L485.55 21.3882V19.9583V18.5284L455.178 18.5284V19.9583ZM485.55 19.9583H484.12V135.783H485.55H486.98V19.9583H485.55ZM485.55 135.783L486.57 136.786L544.74 77.5861L543.72 76.5839L542.7 75.5817L484.53 134.781L485.55 135.783ZM543.72 76.5839V78.0138H580.784V76.5839V75.1539H543.72V76.5839ZM580.784 76.5839L579.775 75.5701L530.357 124.731L531.365 125.745L532.374 126.759L581.792 77.5976L580.784 76.5839ZM531.365 125.745L530.162 126.519L586.273 213.773L587.476 213L588.679 212.227L532.568 124.972L531.365 125.745ZM587.476 213V211.57H552.214V213V214.43H587.476V213ZM552.214 213L553.421 212.234L511.467 146.085L510.259 146.851L509.052 147.617L551.006 213.766L552.214 213ZM510.259 146.851L509.248 145.84L484.539 170.549L485.55 171.56L486.561 172.571L511.27 147.862L510.259 146.851ZM485.55 171.56H484.12V213H485.55H486.98V171.56H485.55Z" fill="black" mask="url(#path-1-outside-1_823_1864)"/>
<rect x="596.424" y="31.9704" width="51.5127" height="43.9495" rx="16.9782" fill="#FE4C01"/>
<rect x="596.424" y="31.9704" width="51.5127" height="43.9495" rx="16.9782" fill="url(#pattern0_823_1864)"/>
<rect x="596.424" y="31.9704" width="51.5127" height="43.9495" rx="16.9782" stroke="#0A0A0A" stroke-width="1.42994"/>
<path d="M577.371 144.072L592.817 98.4779C596.102 88.7797 605.203 82.254 615.442 82.254C631.564 82.254 643.056 97.8945 638.24 113.28L617.169 180.589C608.9 207.003 584.268 224.854 556.592 224.488L520.485 224.012C506.25 223.824 494.808 212.231 494.808 197.995C494.808 183.425 506.772 171.694 521.339 171.98L537.188 172.292C555.301 172.648 571.558 161.231 577.371 144.072Z" fill="#FE4C01"/>
<path d="M577.371 144.072L592.817 98.4779C596.102 88.7797 605.203 82.254 615.442 82.254C631.564 82.254 643.056 97.8945 638.24 113.28L617.169 180.589C608.9 207.003 584.268 224.854 556.592 224.488L520.485 224.012C506.25 223.824 494.808 212.231 494.808 197.995C494.808 183.425 506.772 171.694 521.339 171.98L537.188 172.292C555.301 172.648 571.558 161.231 577.371 144.072Z" fill="url(#pattern1_823_1864)"/>
<path d="M577.371 144.072L592.817 98.4779C596.102 88.7797 605.203 82.254 615.442 82.254C631.564 82.254 643.056 97.8945 638.24 113.28L617.169 180.589C608.9 207.003 584.268 224.854 556.592 224.488L520.485 224.012C506.25 223.824 494.808 212.231 494.808 197.995C494.808 183.425 506.772 171.694 521.339 171.98L537.188 172.292C555.301 172.648 571.558 161.231 577.371 144.072Z" stroke="#0A0A0A" stroke-width="1.42994"/>
<path d="M791.084 204.634C791.084 218.831 779.575 230.34 765.378 230.34H749.074C743.882 230.34 739.672 226.131 739.672 220.938C739.672 215.746 735.463 211.537 730.271 211.537H700.519C695.327 211.537 691.118 215.746 691.118 220.938C691.118 226.131 686.909 230.34 681.716 230.34H665.413C651.217 230.34 639.709 218.831 639.709 204.635V106.981C639.709 86.0792 656.653 69.1347 677.555 69.1347H753.237C774.139 69.1347 791.084 86.0792 791.084 106.981V204.634ZM688.261 137.643C688.261 151.739 699.689 163.167 713.786 163.167H717.004C731.1 163.167 742.528 151.739 742.528 137.643C742.528 123.546 731.1 112.118 717.004 112.118H713.786C699.689 112.118 688.261 123.546 688.261 137.643Z" fill="#0A0A0A"/>
<mask id="path-8-inside-2_823_1864" fill="white">
<path d="M769.947 198.646C769.947 212.438 758.766 223.618 744.974 223.618H729.135C724.091 223.618 720.001 219.529 720.001 214.485C720.001 209.441 715.912 205.352 710.868 205.352H681.962C676.918 205.352 672.829 209.441 672.829 214.485C672.829 219.529 668.739 223.618 663.695 223.618H647.853C634.06 223.618 622.878 212.437 622.878 198.643V99.2389C622.878 81.4335 637.313 66.9993 655.118 66.9993H737.707C755.513 66.9993 769.947 81.4335 769.947 99.2389V198.646ZM670.05 133.566C670.05 147.262 681.153 158.365 694.849 158.365H697.975C711.67 158.365 722.773 147.262 722.773 133.566C722.773 119.87 711.67 108.768 697.975 108.768H694.849C681.153 108.768 670.05 119.87 670.05 133.566Z"/>
</mask>
<path d="M769.947 198.646C769.947 212.438 758.766 223.618 744.974 223.618H729.135C724.091 223.618 720.001 219.529 720.001 214.485C720.001 209.441 715.912 205.352 710.868 205.352H681.962C676.918 205.352 672.829 209.441 672.829 214.485C672.829 219.529 668.739 223.618 663.695 223.618H647.853C634.06 223.618 622.878 212.437 622.878 198.643V99.2389C622.878 81.4335 637.313 66.9993 655.118 66.9993H737.707C755.513 66.9993 769.947 81.4335 769.947 99.2389V198.646ZM670.05 133.566C670.05 147.262 681.153 158.365 694.849 158.365H697.975C711.67 158.365 722.773 147.262 722.773 133.566C722.773 119.87 711.67 108.768 697.975 108.768H694.849C681.153 108.768 670.05 119.87 670.05 133.566Z" fill="#277DF5"/>
<path d="M744.974 223.618V222.189H729.135V223.618V225.048H744.974V223.618ZM710.868 205.352V203.922H681.962V205.352V206.782H710.868V205.352ZM663.695 223.618V222.189H647.853V223.618V225.048H663.695V223.618ZM622.878 198.643H624.308V99.2389H622.878H621.448V198.643H622.878ZM655.118 66.9993V68.4292H737.707V66.9993V65.5694H655.118V66.9993ZM769.947 99.2389H768.517V198.646H769.947H771.377V99.2389H769.947ZM694.849 158.365V159.794H697.975V158.365V156.935H694.849V158.365ZM697.975 108.768V107.338H694.849V108.768V110.198H697.975V108.768ZM694.849 108.768V107.338C680.363 107.338 668.62 119.081 668.62 133.566H670.05H671.48C671.48 120.66 681.943 110.198 694.849 110.198V108.768ZM722.773 133.566H724.203C724.203 119.081 712.46 107.338 697.975 107.338V108.768V110.198C710.881 110.198 721.343 120.66 721.343 133.566H722.773ZM697.975 158.365V159.794C712.46 159.794 724.203 148.052 724.203 133.566H722.773H721.343C721.343 146.472 710.881 156.935 697.975 156.935V158.365ZM694.849 158.365V156.935C681.943 156.935 671.48 146.472 671.48 133.566H670.05H668.62C668.62 148.052 680.363 159.794 694.849 159.794V158.365ZM737.707 66.9993V68.4292C754.723 68.4292 768.517 82.2232 768.517 99.2389H769.947H771.377C771.377 80.6437 756.302 65.5694 737.707 65.5694V66.9993ZM622.878 99.2389H624.308C624.308 82.2232 638.102 68.4292 655.118 68.4292V66.9993V65.5694C636.523 65.5694 621.448 80.6437 621.448 99.2389H622.878ZM647.853 223.618V222.189C634.85 222.189 624.308 211.647 624.308 198.643H622.878H621.448C621.448 213.226 633.27 225.048 647.853 225.048V223.618ZM672.829 214.485H671.399C671.399 218.74 667.95 222.189 663.695 222.189V223.618V225.048C669.529 225.048 674.258 220.319 674.258 214.485H672.829ZM681.962 205.352V203.922C676.128 203.922 671.399 208.651 671.399 214.485H672.829H674.258C674.258 210.231 677.707 206.782 681.962 206.782V205.352ZM720.001 214.485H721.431C721.431 208.651 716.702 203.922 710.868 203.922V205.352V206.782C715.123 206.782 718.571 210.231 718.571 214.485H720.001ZM729.135 223.618V222.189C724.88 222.189 721.431 218.74 721.431 214.485H720.001H718.571C718.571 220.319 723.301 225.048 729.135 225.048V223.618ZM744.974 223.618V225.048C759.556 225.048 771.377 213.228 771.377 198.646H769.947H768.517C768.517 211.648 757.976 222.189 744.974 222.189V223.618Z" fill="#0A0A0A" mask="url(#path-8-inside-2_823_1864)"/>
<path d="M751.573 209.644C755.415 188.489 759.258 167.335 762.731 153.37C766.205 139.405 769.194 133.271 772.548 127.36C779.149 115.729 787.539 105.841 795.076 98.2639C800.181 93.1305 808.227 88.5202 817.063 84.347C820.167 82.8815 821.203 84.6163 821.857 87.0682C825.264 99.8541 822.096 117.655 820.256 128.207C819.062 135.052 816.921 150.547 815.087 171.037C814.334 179.455 814.747 183.912 824.357 176.364C833.966 168.816 852.965 149.143 865.741 136.681C878.517 124.219 884.495 119.565 892.911 114.101C911.64 101.939 924.705 95.7574 928.573 94.5876C933.414 93.1236 937.002 91.4818 938.619 91.6901C939.308 91.7788 939.169 93.1677 932.552 106.511C925.934 119.854 912.699 145.45 905.347 160.54C892.509 186.891 894.314 200.002 896.035 203.967C897.036 206.273 900.123 207.714 903.458 208.676C910.04 208.156 915.008 206.227 918.226 205.06C920.377 204.105 923.579 202.413 926.879 200.669" stroke="#0A0A0A" stroke-width="42.8981" stroke-linecap="round"/>
<g filter="url(#filter0_iin_823_1864)">
<path d="M751.573 209.644C755.415 188.489 759.258 167.335 762.731 153.37C766.205 139.405 769.194 133.271 772.548 127.36C779.149 115.729 787.539 105.841 795.076 98.2639C800.181 93.1305 808.227 88.5202 817.063 84.347C820.167 82.8815 821.203 84.6163 821.857 87.0682C825.264 99.8541 822.096 117.655 820.256 128.207C819.062 135.052 816.921 150.547 815.087 171.037C814.334 179.455 814.747 183.912 824.357 176.364C833.966 168.816 852.965 149.143 865.741 136.681C878.517 124.219 884.495 119.565 892.911 114.101C911.64 101.939 924.705 95.7574 928.573 94.5876C933.414 93.1236 937.002 91.4818 938.619 91.6901C939.308 91.7788 939.169 93.1677 932.552 106.511C925.934 119.854 912.699 145.45 905.347 160.54C892.509 186.891 894.314 200.002 896.035 203.967C897.036 206.273 900.123 207.714 903.458 208.676C910.04 208.156 915.008 206.227 918.226 205.06C920.377 204.105 923.579 202.413 926.879 200.669" stroke="url(#paint0_linear_823_1864)" stroke-width="39.3182" stroke-linecap="round"/>
</g>
<defs>
<filter id="filter0_iin_823_1864" x="731.91" y="60.215" width="226.644" height="176.955" filterUnits="userSpaceOnUse" color-interpolation-filters="sRGB">
<feFlood flood-opacity="0" result="BackgroundImageFix"/>
<feBlend mode="normal" in="SourceGraphic" in2="BackgroundImageFix" result="shape"/>
<feColorMatrix in="SourceAlpha" type="matrix" values="0 0 0 0 0 0 0 0 0 0 0 0 0 0 0 0 0 0 127 0" result="hardAlpha"/>
<feOffset dy="7.86364"/>
<feGaussianBlur stdDeviation="3.93182"/>
<feComposite in2="hardAlpha" operator="arithmetic" k2="-1" k3="1"/>
<feColorMatrix type="matrix" values="0 0 0 0 1 0 0 0 0 0.595553 0 0 0 0 0.979778 0 0 0 0.9 0"/>
<feBlend mode="normal" in2="shape" result="effect1_innerShadow_823_1864"/>
<feColorMatrix in="SourceAlpha" type="matrix" values="0 0 0 0 0 0 0 0 0 0 0 0 0 0 0 0 0 0 127 0" result="hardAlpha"/>
<feOffset dy="-3.93182"/>
<feGaussianBlur stdDeviation="14.7443"/>
<feComposite in2="hardAlpha" operator="arithmetic" k2="-1" k3="1"/>
<feColorMatrix type="matrix" values="0 0 0 0 0.748662 0 0 0 0 0.367552 0 0 0 0 0.925274 0 0 0 0.5 0"/>
<feBlend mode="normal" in2="effect1_innerShadow_823_1864" result="effect2_innerShadow_823_1864"/>
<feTurbulence type="fractalNoise" baseFrequency="1.017341136932373 1.017341136932373" stitchTiles="stitch" numOctaves="3" result="noise" seed="4726" />
<feColorMatrix in="noise" type="luminanceToAlpha" result="alphaNoise" />
<feComponentTransfer in="alphaNoise" result="coloredNoise1">
<feFuncA type="discrete" tableValues="1 1 1 1 1 1 1 1 1 1 1 1 1 1 1 1 1 1 1 1 1 1 1 1 1 1 1 1 1 1 1 1 1 1 1 1 1 1 1 1 1 1 1 1 1 1 1 1 1 1 1 0 0 0 0 0 0 0 0 0 0 0 0 0 0 0 0 0 0 0 0 0 0 0 0 0 0 0 0 0 0 0 0 0 0 0 0 0 0 0 0 0 0 0 0 0 0 0 0 0 "/>
</feComponentTransfer>
<feComposite operator="in" in2="effect2_innerShadow_823_1864" in="coloredNoise1" result="noise1Clipped" />
<feComponentTransfer in="alphaNoise" result="coloredNoise2">
<feFuncA type="discrete" tableValues="0 0 0 0 0 0 0 0 0 0 0 0 0 0 0 0 0 0 0 0 0 0 0 0 0 0 0 0 0 0 0 0 0 0 0 0 0 0 0 0 0 0 0 0 0 0 0 0 0 1 1 1 1 1 1 1 1 1 1 1 1 1 1 1 1 1 1 1 1 1 1 1 1 1 1 1 1 1 1 1 1 1 1 1 1 1 1 1 1 1 1 1 1 1 1 1 1 1 1 1 "/>
</feComponentTransfer>
<feComposite operator="in" in2="effect2_innerShadow_823_1864" in="coloredNoise2" result="noise2Clipped" />
<feFlood flood-color="rgba(207, 207, 207, 0.25)" result="color1Flood" />
<feComposite operator="in" in2="noise1Clipped" in="color1Flood" result="color1" />
<feFlood flood-color="rgba(255, 94, 217, 0.25)" result="color2Flood" />
<feComposite operator="in" in2="noise2Clipped" in="color2Flood" result="color2" />
<feMerge result="effect3_noise_823_1864">
<feMergeNode in="effect2_innerShadow_823_1864" />
<feMergeNode in="color1" />
<feMergeNode in="color2" />
</feMerge>
</filter>
<linearGradient id="paint0_linear_823_1864" x1="845.234" y1="83.809" x2="845.234" y2="209.644" gradientUnits="userSpaceOnUse">
<stop stop-color="#F86299"/>
<stop offset="1" stop-color="#DF0152"/>
</linearGradient>
<pattern id="pattern0_823_1864" patternUnits="userSpaceOnUse" patternTransform="matrix(8.17384 0 0 8.17384 595.709 31.2554)" preserveAspectRatio="none" viewBox="0 0 33.2533 33.2533" width="1" height="1">
<g id="pattern0_823_1864_inner">
<circle cx="9.55556" cy="9.55556" r="9.55556" fill="#F11C28"/>
</g>
</pattern><pattern id="pattern1_823_1864" patternUnits="userSpaceOnUse" patternTransform="matrix(8.17384 0 0 8.17384 494.808 82.254)" preserveAspectRatio="none" viewBox="0 0 33.2533 33.2533" width="1" height="1">
<g id="pattern1_823_1864_inner">
<circle cx="9.55556" cy="9.55556" r="9.55556" fill="#F11C28"/>
</g>
</pattern></defs>
</svg>
