<svg width="119" height="114" viewBox="0 0 119 114" fill="none" xmlns="http://www.w3.org/2000/svg">
<g>
<path d="M59.1367 1.40173L57.1067 36.9814C56.6112 45.6669 48.2812 51.719 39.8676 49.5064L5.40203 40.4423L38.613 53.3676C46.7203 56.5229 49.9021 66.3154 45.1978 73.6334L25.9269 103.611L48.4824 76.0198C53.9885 69.2844 64.2849 69.2844 69.7911 76.0198L92.3466 103.611L73.0757 73.6334C68.3714 66.3154 71.5531 56.5229 79.6604 53.3676L112.871 40.4423L78.4058 49.5064C69.9923 51.719 61.6623 45.667 61.1667 36.9814L59.1367 1.40173Z" fill="#F5BE27"/>
<path d="M59.137 0.700562C58.7655 0.700562 58.4581 0.990783 58.4368 1.36169L56.4066 36.9418C55.9361 45.1847 48.0311 50.9282 40.0462 48.8285L5.5804 39.764C5.22105 39.6695 4.8505 39.8726 4.73568 40.226C4.62098 40.5792 4.80167 40.9603 5.14778 41.0951L38.3587 54.0209C46.0531 57.0155 49.0725 66.309 44.6077 73.2543L25.3372 103.232C25.1363 103.544 25.2144 103.96 25.515 104.178C25.8154 104.396 26.2338 104.342 26.4691 104.055L49.0247 76.4633C54.2504 70.0709 64.0226 70.071 69.2484 76.4633L91.804 104.055C92.0392 104.342 92.4576 104.396 92.7581 104.178C93.0587 103.96 93.1368 103.544 92.9359 103.232L73.6654 73.2543C69.2007 66.309 72.2202 57.0155 79.9144 54.0209L113.125 41.0951C113.471 40.9604 113.653 40.5792 113.538 40.226C113.424 39.8726 113.052 39.6695 112.693 39.764L78.2279 48.8285C70.2429 50.9285 62.337 45.1848 61.8665 36.9418L59.8363 1.36169L59.8158 1.22693C59.7378 0.922971 59.462 0.700707 59.137 0.700562Z" stroke="black" stroke-width="1.40172" stroke-linejoin="round"/>
</g>
</svg>
