<svg width="86" height="123" fill="none" xmlns="http://www.w3.org/2000/svg"><path fill-rule="evenodd" clip-rule="evenodd" d="M10.448 42.233C4.158 38.136 0 31.04 0 22.973 0 10.284 10.285 0 22.973 0h39.359c12.687 0 22.972 10.285 22.972 22.973 0 8.066-4.158 15.162-10.448 19.26 6.29 4.099 10.448 11.195 10.448 19.262 0 12.687-10.285 22.972-22.972 22.972h-.42a22.89 22.89 0 01-15.548-6.062v21.402c0 12.829-10.51 23.182-23.287 23.182C10.415 122.989 0 112.729 0 100.016c0-8.067 4.158-15.162 10.447-19.26C4.157 76.656 0 69.56 0 61.494c0-8.067 4.158-15.163 10.448-19.261zm35.916 19.262c0 8.587 6.961 15.549 15.549 15.549h.419c8.587 0 15.549-6.962 15.549-15.55 0-8.587-6.962-15.549-15.55-15.549h-.418c-8.588 0-15.55 6.962-15.55 15.55zm-7.423-15.55H22.971c-8.587 0-15.549 6.962-15.549 15.55 0 8.57 6.934 15.52 15.497 15.549h16.021V45.945zM22.971 84.467h-.052c-8.563.028-15.497 6.979-15.497 15.549 0 8.562 7.04 15.549 15.654 15.549 8.729 0 15.863-7.081 15.863-15.758v-15.34H22.974zM38.94 38.522H22.974c-8.588 0-15.55-6.962-15.55-15.55 0-8.587 6.962-15.549 15.55-15.549H38.94v31.099zm23.392 0H46.364V7.423h15.968c8.587 0 15.549 6.962 15.549 15.55 0 8.587-6.962 15.549-15.55 15.549z" fill="#000"/></svg>