<svg width="678" height="109" fill="none" xmlns="http://www.w3.org/2000/svg"><path fill-rule="evenodd" clip-rule="evenodd" d="M9.179 37.105C3.653 33.505 0 27.27 0 20.183 0 9.036 9.036 0 20.183 0h34.58c11.146 0 20.182 9.036 20.182 20.183 0 7.087-3.653 13.321-9.179 16.922 5.526 3.6 9.18 9.835 9.18 16.922 0 11.147-9.037 20.183-20.184 20.183h-.367a20.11 20.11 0 01-13.662-5.326v18.803c0 11.27-9.233 20.366-20.459 20.366C9.151 108.053 0 99.04 0 87.871c0-7.088 3.653-13.322 9.179-16.922C3.653 67.348 0 61.114 0 54.027s3.653-13.322 9.179-16.922zm31.554 16.922c0 7.545 6.117 13.66 13.662 13.66h.367c7.545 0 13.661-6.115 13.661-13.66s-6.116-13.661-13.66-13.661h-.368c-7.545 0-13.662 6.116-13.662 13.66zm-6.521-13.661h-14.03c-7.544 0-13.66 6.116-13.66 13.66 0 7.53 6.091 13.637 13.615 13.662H34.212V40.366zM20.182 74.21h-.045c-7.524.024-13.615 6.131-13.615 13.66 0 7.522 6.185 13.662 13.752 13.662 7.67 0 13.938-6.222 13.938-13.845V74.21h-14.03zm14.03-40.366h-14.03c-7.544 0-13.66-6.116-13.66-13.661s6.116-13.661 13.66-13.661h14.03v27.322zm20.55 0H40.733V6.522h14.03c7.544 0 13.66 6.116 13.66 13.66 0 7.546-6.116 13.662-13.66 13.662z" fill="#000"/><path d="M124.738 81.527V27.594h7.267v53.933h-7.267zm1.453-22.72v-6.58h32.819v6.58h-32.819zm0-24.557v-6.656h35.496v6.656h-35.496zm39.371 47.277V43.353h6.808v38.174h-6.808zm-.077-43.07V27.594h6.962v10.863h-6.962zm30.455 56.84c-4.743 0-8.593-1.097-11.551-3.29s-4.845-5.253-5.661-9.18l6.655-1.453c.561 2.499 1.76 4.437 3.596 5.814 1.836 1.428 4.156 2.142 6.961 2.142 3.366 0 5.891-.867 7.574-2.601 1.734-1.683 2.601-4.208 2.601-7.574v-6.043c-.765 1.887-2.193 3.417-4.284 4.59-2.04 1.173-4.335 1.76-6.885 1.76-3.366 0-6.324-.766-8.874-2.296-2.55-1.58-4.539-3.774-5.967-6.579-1.428-2.805-2.142-6.043-2.142-9.715 0-3.723.714-6.987 2.142-9.792 1.428-2.805 3.391-4.973 5.89-6.503 2.55-1.58 5.534-2.371 8.951-2.371 2.55 0 4.87.586 6.961 1.76 2.142 1.121 3.596 2.524 4.361 4.207v-4.82h6.655v35.802c0 3.366-.663 6.248-1.989 8.645-1.326 2.448-3.264 4.31-5.814 5.584-2.499 1.275-5.559 1.913-9.18 1.913zm-.153-21.88c3.264 0 5.865-1.147 7.803-3.442 1.989-2.295 2.984-5.33 2.984-9.103 0-3.825-.995-6.885-2.984-9.18-1.989-2.295-4.59-3.443-7.803-3.443-3.264 0-5.89 1.148-7.879 3.443-1.938 2.295-2.907 5.355-2.907 9.18 0 3.774.994 6.808 2.983 9.103s4.59 3.443 7.803 3.443zm24.849 8.11V43.353h6.655v4.284c.51-1.479 1.632-2.754 3.366-3.825 1.734-1.07 3.749-1.606 6.044-1.606 2.244 0 4.309.484 6.196 1.453 1.887.97 3.111 2.423 3.672 4.36.663-1.784 1.887-3.187 3.672-4.207 1.836-1.07 3.876-1.606 6.12-1.606 3.876 0 6.834 1.122 8.874 3.366 2.04 2.244 3.06 5.508 3.06 9.792v26.163h-6.808V56.282c0-2.55-.561-4.463-1.683-5.738-1.071-1.326-2.652-1.989-4.743-1.989-2.295 0-4.08.816-5.355 2.448-1.224 1.581-1.836 3.902-1.836 6.962v23.562h-6.809V56.282c0-2.55-.561-4.463-1.683-5.738-1.071-1.326-2.652-1.989-4.743-1.989-2.295 0-4.08.816-5.355 2.448-1.224 1.581-1.836 3.902-1.836 6.962v23.562h-6.808zm65.984 1.147c-2.499 0-4.743-.484-6.732-1.453-1.938-.97-3.493-2.27-4.666-3.902-1.122-1.683-1.683-3.62-1.683-5.814 0-2.856.918-5.176 2.754-6.961 1.836-1.785 4.462-3.01 7.879-3.672l8.951-1.836c1.785-.357 3.009-.918 3.672-1.683.663-.765.994-1.887.994-3.366l.918 8.95-12.852 2.754c-1.734.357-3.085.995-4.054 1.913-.918.918-1.377 2.193-1.377 3.825 0 1.683.637 3.034 1.912 4.054 1.326 1.02 3.111 1.53 5.355 1.53 1.836 0 3.519-.408 5.049-1.224 1.581-.816 2.805-1.938 3.672-3.366.918-1.479 1.377-3.162 1.377-5.049V53.987c0-1.836-.663-3.264-1.989-4.284-1.275-1.071-3.034-1.607-5.278-1.607-2.856 0-5.049.714-6.579 2.142-1.53 1.428-2.423 3.443-2.678 6.044l-6.732-.918c.255-2.703 1.071-5.024 2.448-6.962 1.377-1.989 3.213-3.519 5.508-4.59 2.295-1.07 5.024-1.606 8.186-1.606 4.488 0 7.93 1.147 10.327 3.442 2.397 2.295 3.596 5.253 3.596 8.874v27.005h-6.656v-4.973c-.663 1.683-2.014 3.137-4.054 4.36-1.989 1.174-4.412 1.76-7.268 1.76zm49.322 0c-2.499 0-4.743-.484-6.732-1.453-1.938-.97-3.493-2.27-4.666-3.902-1.122-1.683-1.683-3.62-1.683-5.814 0-2.856.918-5.176 2.754-6.961 1.836-1.785 4.462-3.01 7.879-3.672l8.951-1.836c1.785-.357 3.009-.918 3.672-1.683.663-.765.994-1.887.994-3.366l.918 8.95-12.852 2.754c-1.734.357-3.085.995-4.054 1.913-.918.918-1.377 2.193-1.377 3.825 0 1.683.637 3.034 1.912 4.054 1.326 1.02 3.111 1.53 5.355 1.53 1.836 0 3.519-.408 5.049-1.224 1.581-.816 2.805-1.938 3.672-3.366.918-1.479 1.377-3.162 1.377-5.049V53.987c0-1.836-.663-3.264-1.989-4.284-1.275-1.071-3.034-1.607-5.278-1.607-2.856 0-5.049.714-6.579 2.142-1.53 1.428-2.423 3.443-2.678 6.044l-6.732-.918c.255-2.703 1.071-5.024 2.448-6.962 1.377-1.989 3.213-3.519 5.508-4.59 2.295-1.07 5.024-1.606 8.186-1.606 4.488 0 7.93 1.147 10.327 3.442 2.397 2.295 3.596 5.253 3.596 8.874v27.005h-6.656v-4.973c-.663 1.683-2.014 3.137-4.054 4.36-1.989 1.174-4.412 1.76-7.268 1.76zm39.879-.535c-3.519 0-6.273-.918-8.262-2.754-1.938-1.887-2.907-4.59-2.907-8.11V49.398h-7.497v-6.044h4.513c1.326 0 2.244-.204 2.754-.612.51-.459.765-1.402.765-2.83v-7.115h6.273v10.557h8.415v6.044h-8.415v20.502c0 1.836.485 3.264 1.454 4.284 1.02 1.02 2.397 1.53 4.131 1.53.612 0 1.122-.026 1.53-.077a95.73 95.73 0 001.3-.153v6.273c-.51.102-1.122.179-1.836.23-.714.102-1.453.153-2.218.153zm33.317-.612l-15.453-53.933h8.109l11.093 43.682 12.393-43.682h7.344l12.393 43.682 11.092-43.682h8.109l-15.453 53.933h-7.344l-12.469-43.452-12.47 43.452h-7.344zm66.685 1.147c-2.499 0-4.743-.484-6.732-1.453-1.938-.97-3.493-2.27-4.666-3.902-1.122-1.683-1.683-3.62-1.683-5.814 0-2.856.918-5.176 2.754-6.961 1.836-1.785 4.462-3.01 7.879-3.672l8.951-1.836c1.785-.357 3.009-.918 3.672-1.683.663-.765.994-1.887.994-3.366l.918 8.95-12.852 2.754c-1.734.357-3.085.995-4.054 1.913-.918.918-1.377 2.193-1.377 3.825 0 1.683.637 3.034 1.912 4.054 1.326 1.02 3.111 1.53 5.355 1.53 1.836 0 3.519-.408 5.049-1.224 1.581-.816 2.805-1.938 3.672-3.366.918-1.479 1.377-3.162 1.377-5.049V53.987c0-1.836-.663-3.264-1.989-4.284-1.275-1.071-3.034-1.607-5.278-1.607-2.856 0-5.049.714-6.579 2.142-1.53 1.428-2.423 3.443-2.678 6.044l-6.732-.918c.255-2.703 1.071-5.024 2.448-6.962 1.377-1.989 3.213-3.519 5.508-4.59 2.295-1.07 5.024-1.606 8.186-1.606 4.488 0 7.93 1.147 10.327 3.442 2.397 2.295 3.596 5.253 3.596 8.874v27.005h-6.656v-4.973c-.663 1.683-2.014 3.137-4.054 4.36-1.989 1.174-4.412 1.76-7.268 1.76zm39.879-.535c-3.519 0-6.273-.918-8.262-2.754-1.938-1.887-2.907-4.59-2.907-8.11V49.398h-7.497v-6.044h4.514c1.326 0 2.244-.204 2.754-.612.51-.459.765-1.402.765-2.83v-7.115h6.273v10.557h8.415v6.044h-8.415v20.502c0 1.836.484 3.264 1.453 4.284 1.02 1.02 2.397 1.53 4.131 1.53.612 0 1.122-.026 1.53-.077.459-.05.893-.102 1.301-.153v6.273c-.51.102-1.122.179-1.836.23-.714.102-1.454.153-2.219.153zm24.188.535c-3.723 0-6.962-.841-9.716-2.524-2.703-1.683-4.794-4.055-6.273-7.115-1.428-3.06-2.142-6.579-2.142-10.557 0-4.029.74-7.548 2.219-10.557 1.53-3.06 3.621-5.431 6.273-7.114 2.703-1.734 5.788-2.601 9.256-2.601 3.264 0 6.171.765 8.721 2.295 2.55 1.53 4.539 3.697 5.967 6.502 1.479 2.805 2.219 6.12 2.219 9.945 0 .561-.026 1.148-.077 1.76-.051.56-.102.969-.153 1.224h-31.671V58.73h27.005l-1.913 1.07c0-2.6-.459-4.768-1.377-6.502-.918-1.734-2.142-3.034-3.672-3.901-1.479-.918-3.162-1.377-5.049-1.377-2.091 0-3.952.535-5.584 1.606-1.581 1.02-2.831 2.397-3.749 4.131-.918 1.734-1.377 3.647-1.377 5.738v3.825c0 4.13.969 7.395 2.907 9.792 1.938 2.397 4.718 3.595 8.339 3.595 2.244 0 4.284-.637 6.12-1.912 1.836-1.326 3.085-3.188 3.748-5.585l6.12 1.913c-1.02 3.723-2.983 6.579-5.89 8.568-2.856 1.989-6.273 2.983-10.251 2.983zm22.007-1.147V43.353h6.656v5.738c.408-1.53 1.198-2.805 2.371-3.825a12.493 12.493 0 014.208-2.295 16.337 16.337 0 014.896-.765h.688v6.808h-.688c-2.091 0-4.004.434-5.738 1.3-1.683.868-3.034 2.245-4.054 4.132-1.02 1.836-1.53 4.284-1.53 7.344v19.737h-6.809zm22.607-53.933h6.808v53.933h-6.808V27.594zm30.759 55.08c-3.57 0-6.757-.841-9.562-2.524-2.754-1.734-4.947-4.131-6.579-7.191-1.581-3.06-2.372-6.58-2.372-10.557 0-4.03.791-7.548 2.372-10.557 1.632-3.01 3.825-5.355 6.579-7.038 2.805-1.734 5.992-2.601 9.562-2.601 3.57 0 6.732.867 9.486 2.6 2.805 1.684 4.998 4.03 6.579 7.039 1.632 3.009 2.448 6.528 2.448 10.557 0 3.978-.816 7.497-2.448 10.557-1.581 3.06-3.774 5.457-6.579 7.19-2.754 1.684-5.916 2.525-9.486 2.525zm.077-6.196c2.193 0 4.131-.561 5.814-1.683 1.734-1.173 3.085-2.805 4.054-4.896.969-2.091 1.454-4.59 1.454-7.497 0-2.958-.485-5.457-1.454-7.497-.969-2.091-2.32-3.698-4.054-4.82-1.734-1.122-3.698-1.683-5.891-1.683-2.142 0-4.08.561-5.814 1.683-1.734 1.122-3.111 2.729-4.131 4.82-.969 2.04-1.453 4.539-1.453 7.497 0 2.907.484 5.406 1.453 7.497 1.02 2.09 2.397 3.723 4.131 4.896 1.734 1.122 3.698 1.683 5.891 1.683zm40.385 6.196c-3.57 0-6.758-.841-9.563-2.524-2.754-1.734-4.947-4.131-6.579-7.191-1.581-3.06-2.371-6.58-2.371-10.557 0-4.03.79-7.548 2.371-10.557 1.632-3.01 3.825-5.355 6.579-7.038 2.805-1.734 5.993-2.601 9.563-2.601 3.57 0 6.732.867 9.486 2.6 2.805 1.684 4.998 4.03 6.579 7.039 1.632 3.009 2.448 6.528 2.448 10.557 0 3.978-.816 7.497-2.448 10.557-1.581 3.06-3.774 5.457-6.579 7.19-2.754 1.684-5.916 2.525-9.486 2.525zm.076-6.196c2.193 0 4.131-.561 5.814-1.683 1.734-1.173 3.086-2.805 4.055-4.896.969-2.091 1.453-4.59 1.453-7.497 0-2.958-.484-5.457-1.453-7.497-.969-2.091-2.321-3.698-4.055-4.82-1.734-1.122-3.697-1.683-5.89-1.683-2.142 0-4.08.561-5.814 1.683-1.734 1.122-3.111 2.729-4.131 4.82-.969 2.04-1.454 4.539-1.454 7.497 0 2.907.485 5.406 1.454 7.497 1.02 2.09 2.397 3.723 4.131 4.896 1.734 1.122 3.697 1.683 5.89 1.683z" fill="#000"/></svg>