<svg preserveAspectRatio="none" width="100%" height="100%" overflow="visible" style="display: block;" viewBox="0 0 224.8 105.9" fill="none" xmlns="http://www.w3.org/2000/svg">
<g id="Group 633618">
<g id="Ellipse 518" opacity="0.64" filter="url(#filter0_f_0_131)">
<ellipse cx="112.4" cy="82.5" rx="102.5" ry="13.5" fill="url(#paint0_linear_0_131)"/>
</g>
<g id="Ellipse 514" filter="url(#filter1_ii_0_131)">
<path d="M93.9 23.5922C144.158 23.5922 184.9 18.3109 184.9 11.7961C184.9 5.28128 144.158 0 93.9 0C43.6421 0 2.9 5.28128 2.9 11.7961C2.9 18.3109 43.6421 23.5922 93.9 23.5922Z" fill="url(#paint1_linear_0_131)"/>
<path d="M184.9 11.7961C184.9 18.3109 144.158 23.5922 93.9 23.5922C43.6421 23.5922 2.9 18.3109 2.9 11.7961V72.0619C2.9 78.556 6.41815 84.5878 12.6628 86.3701C48.3236 96.5475 138.648 96.5433 174.932 86.3576C181.281 84.5755 184.9 78.4685 184.9 71.875V11.7961Z" fill="url(#paint2_radial_0_131)"/>
</g>
</g>
<defs>
<filter id="filter0_f_0_131" x="0" y="59.1" width="224.8" height="46.8" filterUnits="userSpaceOnUse" color-interpolation-filters="sRGB">
<feFlood flood-opacity="0" result="BackgroundImageFix"/>
<feBlend mode="normal" in="SourceGraphic" in2="BackgroundImageFix" result="shape"/>
<feGaussianBlur stdDeviation="4.95" result="effect1_foregroundBlur_0_131"/>
</filter>
<filter id="filter1_ii_0_131" x="-2.1" y="-9" width="193" height="105" filterUnits="userSpaceOnUse" color-interpolation-filters="sRGB">
<feFlood flood-opacity="0" result="BackgroundImageFix"/>
<feBlend mode="normal" in="SourceGraphic" in2="BackgroundImageFix" result="shape"/>
<feColorMatrix in="SourceAlpha" type="matrix" values="0 0 0 0 0 0 0 0 0 0 0 0 0 0 0 0 0 0 127 0" result="hardAlpha"/>
<feOffset dx="-5" dy="-9"/>
<feGaussianBlur stdDeviation="6.95"/>
<feComposite in2="hardAlpha" operator="arithmetic" k2="-1" k3="1"/>
<feColorMatrix type="matrix" values="0 0 0 0 0 0 0 0 0 0 0 0 0 0 0 0 0 0 0.25 0"/>
<feBlend mode="normal" in2="shape" result="effect1_innerShadow_0_131"/>
<feColorMatrix in="SourceAlpha" type="matrix" values="0 0 0 0 0 0 0 0 0 0 0 0 0 0 0 0 0 0 127 0" result="hardAlpha"/>
<feOffset dx="6" dy="2"/>
<feGaussianBlur stdDeviation="5"/>
<feComposite in2="hardAlpha" operator="arithmetic" k2="-1" k3="1"/>
<feColorMatrix type="matrix" values="0 0 0 0 1 0 0 0 0 1 0 0 0 0 1 0 0 0 0.3 0"/>
<feBlend mode="normal" in2="effect1_innerShadow_0_131" result="effect2_innerShadow_0_131"/>
</filter>
<linearGradient id="paint0_linear_0_131" x1="73.9" y1="87.2903" x2="300.872" y2="92.4563" gradientUnits="userSpaceOnUse">
<stop/>
<stop offset="1"/>
</linearGradient>
<linearGradient id="paint1_linear_0_131" x1="48.9" y1="-76.183" x2="92.4978" y2="76.5832" gradientUnits="userSpaceOnUse">
<stop offset="0.4375" stop-color="#FFDCBB"/>
<stop offset="0.538462" stop-color="#FCB572"/>
<stop offset="0.682692" stop-color="#F99130"/>
<stop offset="0.798077" stop-color="#EE6F10"/>
</linearGradient>
<radialGradient id="paint2_radial_0_131" cx="0" cy="0" r="1" gradientTransform="matrix(70 69.7935 -135.132 130.965 21.4 8.84706)" gradientUnits="userSpaceOnUse">
<stop offset="0.0598684" stop-color="#FFDCBB"/>
<stop offset="0.242399" stop-color="#FCB572"/>
<stop offset="0.526035" stop-color="#F99130"/>
<stop offset="1" stop-color="#EE6F10"/>
</radialGradient>
</defs>
</svg>
