<svg width="1321" height="565" viewBox="0 0 1321 565" fill="none" xmlns="http://www.w3.org/2000/svg">
<path d="M68.1623 79.4965L132.814 119.895L64.6515 133.145L-3.55814e-05 92.746L68.1623 79.4965Z" fill="#F4EFF5"/>
<path d="M197.465 160.294L262.117 200.693L193.955 213.942L129.303 173.543L197.465 160.294Z" fill="#F4EFF5"/>
<path d="M326.769 241.092L391.42 281.49L323.258 294.74L258.606 254.341L326.769 241.092Z" fill="#F4EFF5"/>
<path d="M456.072 321.889L520.723 362.288L452.561 375.537L387.909 335.139L456.072 321.889Z" fill="#F4EFF5"/>
<path d="M585.375 402.687L650.026 443.085L581.864 456.335L517.212 415.936L585.375 402.687Z" fill="#F4EFF5"/>
<path d="M714.678 483.484L779.329 523.883L711.167 537.132L646.515 496.734L714.678 483.484Z" fill="#F4EFF5"/>
<path d="M200.653 106.444L265.305 146.843L197.142 160.092L132.491 119.693L200.653 106.444Z" fill="#F4EFF5"/>
<path d="M329.956 187.241L394.608 227.64L326.445 240.89L261.794 200.491L329.956 187.241Z" fill="#F4EFF5"/>
<path d="M459.259 268.039L523.911 308.438L455.748 321.687L391.097 281.288L459.259 268.039Z" fill="#F4EFF5"/>
<path d="M588.562 348.836L653.214 389.235L585.051 402.485L520.4 362.086L588.562 348.836Z" fill="#F4EFF5"/>
<path d="M717.865 429.634L782.517 470.033L714.354 483.282L649.703 442.883L717.865 429.634Z" fill="#F4EFF5"/>
<path d="M847.168 510.431L911.82 550.83L843.657 564.08L779.006 523.681L847.168 510.431Z" fill="#F4EFF5"/>
<path d="M336.978 79.9451L401.629 120.344L333.467 133.593L268.815 93.1945L336.978 79.9451Z" fill="#F4EFF5"/>
<path d="M466.281 160.743L530.932 201.141L462.77 214.391L398.118 173.992L466.281 160.743Z" fill="#F4EFF5"/>
<path d="M595.584 241.54L660.235 281.939L592.073 295.188L527.422 254.79L595.584 241.54Z" fill="#F4EFF5"/>
<path d="M724.887 322.338L789.538 362.736L721.376 375.986L656.725 335.587L724.887 322.338Z" fill="#F4EFF5"/>
<path d="M854.19 403.135L918.841 443.534L850.679 456.783L786.028 416.385L854.19 403.135Z" fill="#F4EFF5"/>
<path d="M983.493 483.933L1048.14 524.331L979.982 537.581L915.331 497.182L983.493 483.933Z" fill="#F4EFF5"/>
<path d="M340.812 26.4989L405.463 66.8976L337.301 80.147L272.649 39.7483L340.812 26.4989Z" fill="#F4EFF5"/>
<path d="M470.115 107.296L534.766 147.695L466.604 160.945L401.953 120.546L470.115 107.296Z" fill="#F4EFF5"/>
<path d="M599.418 188.094L664.069 228.493L595.907 241.742L531.256 201.343L599.418 188.094Z" fill="#F4EFF5"/>
<path d="M728.721 268.891L793.373 309.29L725.21 322.54L660.559 282.141L728.721 268.891Z" fill="#F4EFF5"/>
<path d="M858.024 349.689L922.676 390.088L854.513 403.337L789.862 362.938L858.024 349.689Z" fill="#F4EFF5"/>
<path d="M987.327 430.486L1051.98 470.885L983.816 484.135L919.165 443.736L987.327 430.486Z" fill="#F4EFF5"/>
<path d="M473.302 53.4462L537.954 93.845L469.792 107.094L405.14 66.6957L473.302 53.4462Z" fill="#F4EFF5"/>
<path d="M602.606 134.244L667.257 174.643L599.095 187.892L534.443 147.493L602.606 134.244Z" fill="#F4EFF5"/>
<path d="M731.909 215.041L796.56 255.44L728.398 268.689L663.746 228.291L731.909 215.041Z" fill="#F4EFF5"/>
<path d="M861.212 295.839L925.863 336.238L857.701 349.487L793.049 309.088L861.212 295.839Z" fill="#F4EFF5"/>
<path d="M990.515 376.636L1055.17 417.035L987.004 430.284L922.352 389.886L990.515 376.636Z" fill="#F4EFF5"/>
<path d="M1119.82 457.434L1184.47 497.833L1116.31 511.082L1051.66 470.683L1119.82 457.434Z" fill="#F4EFF5"/>
<path d="M477.136 2.98432e-05L541.788 40.3988L473.626 53.6482L408.974 13.2495L477.136 2.98432e-05Z" fill="#F4EFF5"/>
<path d="M606.44 80.7976L671.091 121.196L602.929 134.446L538.277 94.047L606.44 80.7976Z" fill="#F4EFF5"/>
<path d="M735.743 161.595L800.394 201.994L732.232 215.243L667.58 174.845L735.743 161.595Z" fill="#F4EFF5"/>
<path d="M865.046 242.393L929.697 282.791L861.535 296.041L796.883 255.642L865.046 242.393Z" fill="#F4EFF5"/>
<path d="M994.349 323.19L1059 363.589L990.838 376.838L926.186 336.44L994.349 323.19Z" fill="#F4EFF5"/>
<path d="M1123.65 403.988L1188.3 444.386L1120.14 457.636L1055.49 417.237L1123.65 403.988Z" fill="#F4EFF5"/>
<path d="M609.627 26.9474L674.279 67.3462L606.116 80.5956L541.465 40.1968L609.627 26.9474Z" fill="#F4EFF5"/>
<path d="M738.93 107.745L803.582 148.144L735.419 161.393L670.768 120.994L738.93 107.745Z" fill="#F4EFF5"/>
<path d="M868.233 188.542L932.885 228.941L864.722 242.191L800.071 201.792L868.233 188.542Z" fill="#F4EFF5"/>
<path d="M997.536 269.34L1062.19 309.739L994.025 322.988L929.374 282.589L997.536 269.34Z" fill="#F4EFF5"/>
<path d="M1126.84 350.137L1191.49 390.536L1123.33 403.786L1058.68 363.387L1126.84 350.137Z" fill="#F4EFF5"/>
<path d="M1256.14 430.935L1320.79 471.334L1252.63 484.583L1187.98 444.184L1256.14 430.935Z" fill="#F4EFF5"/>
<path d="M204.487 52.9977L269.139 93.3965L200.976 106.646L136.325 66.2471L204.487 52.9977Z" fill="#F4EFF5"/>
<path d="M333.79 133.795L398.442 174.194L330.279 187.443L265.628 147.045L333.79 133.795Z" fill="#F4EFF5"/>
<path d="M463.093 214.593L527.745 254.992L459.582 268.241L394.931 227.842L463.093 214.593Z" fill="#F4EFF5"/>
<path d="M592.396 295.39L657.048 335.789L588.885 349.038L524.234 308.64L592.396 295.39Z" fill="#F4EFF5"/>
<path d="M721.699 376.188L786.351 416.587L718.188 429.836L653.537 389.437L721.699 376.188Z" fill="#F4EFF5"/>
<path d="M851.002 456.985L915.654 497.384L847.492 510.633L782.84 470.235L851.002 456.985Z" fill="#F4EFF5"/>
</svg>
