<svg width="128" height="128" viewBox="0 0 128 128" fill="none" xmlns="http://www.w3.org/2000/svg">
<circle cx="64" cy="64" r="63.5" fill="#1A923A" stroke="#0F0F0E"/>
<mask id="path-2-inside-1_1575_462" fill="white">
<path fill-rule="evenodd" clip-rule="evenodd" d="M94.0002 37L61.0002 56.0527V44.3164C57.3315 44.7801 53.8056 46.0896 50.7082 48.1592C46.7738 50.7881 43.7066 54.5248 41.8957 58.8965C40.0849 63.2683 39.6113 68.0797 40.5344 72.7207C41.4576 77.3616 43.7363 81.6248 47.0823 84.9707C50.4282 88.3166 54.6913 90.5954 59.3323 91.5186C63.9733 92.4417 68.7847 91.9681 73.1565 90.1572C77.5282 88.3464 81.2649 85.2792 83.8938 81.3447C86.5226 77.4103 87.926 72.7846 87.926 68.0527H103C103 75.7661 100.713 83.3063 96.428 89.7197C92.1426 96.1332 86.0513 101.132 78.925 104.084C71.7988 107.036 63.957 107.808 56.3918 106.304C48.8266 104.799 41.8773 101.084 36.4231 95.6299C30.9688 90.1756 27.2541 83.2264 25.7493 75.6611C24.2445 68.0959 25.0172 60.2542 27.969 53.1279C30.9208 46.0017 35.9198 39.9103 42.3332 35.625C47.9122 31.8974 54.3438 29.6815 61.0002 29.168V17.9473L94.0002 37Z"/>
</mask>
<path fill-rule="evenodd" clip-rule="evenodd" d="M94.0002 37L61.0002 56.0527V44.3164C57.3315 44.7801 53.8056 46.0896 50.7082 48.1592C46.7738 50.7881 43.7066 54.5248 41.8957 58.8965C40.0849 63.2683 39.6113 68.0797 40.5344 72.7207C41.4576 77.3616 43.7363 81.6248 47.0823 84.9707C50.4282 88.3166 54.6913 90.5954 59.3323 91.5186C63.9733 92.4417 68.7847 91.9681 73.1565 90.1572C77.5282 88.3464 81.2649 85.2792 83.8938 81.3447C86.5226 77.4103 87.926 72.7846 87.926 68.0527H103C103 75.7661 100.713 83.3063 96.428 89.7197C92.1426 96.1332 86.0513 101.132 78.925 104.084C71.7988 107.036 63.957 107.808 56.3918 106.304C48.8266 104.799 41.8773 101.084 36.4231 95.6299C30.9688 90.1756 27.2541 83.2264 25.7493 75.6611C24.2445 68.0959 25.0172 60.2542 27.969 53.1279C30.9208 46.0017 35.9198 39.9103 42.3332 35.625C47.9122 31.8974 54.3438 29.6815 61.0002 29.168V17.9473L94.0002 37Z" fill="#FF73A6"/>
<path d="M94.0002 37L94.5002 37.866L96.0002 37L94.5002 36.134L94.0002 37ZM61.0002 56.0527H60.0002V57.7848L61.5002 56.9188L61.0002 56.0527ZM61.0002 44.3164H62.0002V43.1821L60.8748 43.3243L61.0002 44.3164ZM50.7082 48.1592L50.1527 47.3277L50.1527 47.3277L50.7082 48.1592ZM41.8957 58.8965L40.9719 58.5138L40.9719 58.5138L41.8957 58.8965ZM40.5344 72.7207L39.5536 72.9158L39.5536 72.9158L40.5344 72.7207ZM47.0823 84.9707L46.3752 85.6778V85.6778L47.0823 84.9707ZM59.3323 91.5186L59.1372 92.4993H59.1372L59.3323 91.5186ZM73.1565 90.1572L73.5392 91.0811L73.5392 91.0811L73.1565 90.1572ZM83.8938 81.3447L84.7253 81.9003L84.7253 81.9003L83.8938 81.3447ZM87.926 68.0527V67.0527H86.926V68.0527H87.926ZM103 68.0527H104V67.0527H103V68.0527ZM96.428 89.7197L97.2594 90.2753V90.2753L96.428 89.7197ZM78.925 104.084L79.3077 105.008H79.3077L78.925 104.084ZM56.3918 106.304L56.1967 107.284L56.1968 107.285L56.3918 106.304ZM36.4231 95.6299L35.716 96.337V96.337L36.4231 95.6299ZM25.7493 75.6611L24.7685 75.8562L24.7685 75.8562L25.7493 75.6611ZM27.969 53.1279L27.0451 52.7452L27.0451 52.7452L27.969 53.1279ZM42.3332 35.625L41.7777 34.7935L41.7777 34.7935L42.3332 35.625ZM61.0002 29.168L61.0772 30.165L62.0002 30.0938V29.168H61.0002ZM61.0002 17.9473L61.5002 17.0812L60.0002 16.2152V17.9473H61.0002ZM94.0002 37L93.5002 36.134L60.5002 55.1867L61.0002 56.0527L61.5002 56.9188L94.5002 37.866L94.0002 37ZM61.0002 56.0527H62.0002V44.3164H61.0002H60.0002V56.0527H61.0002ZM61.0002 44.3164L60.8748 43.3243C57.0529 43.8074 53.3796 45.1716 50.1527 47.3277L50.7082 48.1592L51.2638 48.9907C54.2317 47.0077 57.6102 45.7528 61.1256 45.3085L61.0002 44.3164ZM50.7082 48.1592L50.1527 47.3277C46.0539 50.0665 42.8584 53.9593 40.9719 58.5138L41.8957 58.8965L42.8196 59.2792C44.5548 55.0903 47.4938 51.5097 51.2638 48.9907L50.7082 48.1592ZM41.8957 58.8965L40.9719 58.5138C39.0853 63.0683 38.5919 68.0808 39.5536 72.9158L40.5344 72.7207L41.5152 72.5256C40.6306 68.0785 41.0845 63.4682 42.8196 59.2792L41.8957 58.8965ZM40.5344 72.7207L39.5536 72.9158C40.5154 77.7507 42.8894 82.192 46.3752 85.6778L47.0823 84.9707L47.7894 84.2636C44.5833 81.0575 42.3998 76.9725 41.5152 72.5256L40.5344 72.7207ZM47.0823 84.9707L46.3752 85.6778C49.8609 89.1636 54.3023 91.5375 59.1372 92.4993L59.3323 91.5186L59.5274 90.5378C55.0804 89.6532 50.9955 87.4697 47.7894 84.2636L47.0823 84.9707ZM59.3323 91.5186L59.1372 92.4993C63.9722 93.4611 68.9846 92.9677 73.5392 91.0811L73.1565 90.1572L72.7738 89.2333C68.5848 90.9685 63.9745 91.4224 59.5274 90.5378L59.3323 91.5186ZM73.1565 90.1572L73.5392 91.0811C78.0936 89.1945 81.9865 85.9991 84.7253 81.9003L83.8938 81.3447L83.0623 80.7892C80.5433 84.5592 76.9627 87.4982 72.7738 89.2334L73.1565 90.1572ZM83.8938 81.3447L84.7253 81.9003C87.4639 77.8014 88.926 72.9824 88.926 68.0527H87.926H86.926C86.926 72.5868 85.5813 77.0192 83.0623 80.7892L83.8938 81.3447ZM87.926 68.0527V69.0527H103V68.0527V67.0527H87.926V68.0527ZM103 68.0527H102C102 75.5683 99.7718 82.9152 95.5965 89.1642L96.428 89.7197L97.2594 90.2753C101.655 83.6974 104 75.9638 104 68.0527H103ZM96.428 89.7197L95.5965 89.1642C91.421 95.4132 85.4859 100.284 78.5424 103.16L78.925 104.084L79.3077 105.008C86.6167 101.98 92.8642 96.8532 97.2594 90.2753L96.428 89.7197ZM78.925 104.084L78.5424 103.16C71.5988 106.036 63.9581 106.789 56.5869 105.323L56.3918 106.304L56.1968 107.285C63.956 108.828 71.9988 108.035 79.3077 105.008L78.925 104.084ZM56.3918 106.304L56.5869 105.323C49.2157 103.857 42.4446 100.237 37.1302 94.9228L36.4231 95.6299L35.716 96.337C41.3101 101.931 48.4375 105.741 56.1967 107.284L56.3918 106.304ZM36.4231 95.6299L37.1302 94.9228C31.8158 89.6084 28.1963 82.8373 26.73 75.466L25.7493 75.6611L24.7685 75.8562C26.3119 83.6155 30.1219 90.7429 35.716 96.337L36.4231 95.6299ZM25.7493 75.6611L26.73 75.466C25.2639 68.0949 26.0167 60.4542 28.8929 53.5106L27.969 53.1279L27.0451 52.7452C24.0176 60.0542 23.2251 68.097 24.7685 75.8562L25.7493 75.6611ZM27.969 53.1279L28.8929 53.5106C31.769 46.5671 36.6398 40.6319 42.8888 36.4565L42.3332 35.625L41.7777 34.7935C35.1997 39.1888 30.0726 45.4363 27.0451 52.7452L27.969 53.1279ZM42.3332 35.625L42.8888 36.4565C48.3247 32.8244 54.5914 30.6653 61.0772 30.165L61.0002 29.168L60.9233 28.1709C54.0962 28.6976 47.4997 30.9703 41.7777 34.7935L42.3332 35.625ZM61.0002 29.168H62.0002V17.9473H61.0002H60.0002V29.168H61.0002ZM61.0002 17.9473L60.5002 18.8133L93.5002 37.866L94.0002 37L94.5002 36.134L61.5002 17.0812L61.0002 17.9473Z" fill="black" mask="url(#path-2-inside-1_1575_462)"/>
</svg>
