<svg width="60" height="60" viewBox="0 0 60 60" fill="none" xmlns="http://www.w3.org/2000/svg">
<path d="M35.4287 12.1318L35.6562 12.5918L36.1104 12.3535L46.9688 6.64258L44.8945 18.7354L44.8076 19.2412L45.3154 19.3154L57.4561 21.0781L48.6709 29.6416L48.3037 30L48.6709 30.3584L57.4561 38.9209L45.3154 40.6846L44.8076 40.7588L44.8945 41.2646L46.9688 53.3564L36.1104 47.6465L35.6562 47.4082L35.4287 47.8682L30 58.8691L24.5713 47.8682L24.3438 47.4082L23.8896 47.6465L13.0303 53.3564L15.1055 41.2646L15.1924 40.7588L14.6846 40.6846L2.54297 38.9209L11.3291 30.3584L11.6963 30L11.3291 29.6416L2.54297 21.0781L14.6846 19.3154L15.1924 19.2412L15.1055 18.7354L13.0303 6.64258L23.8896 12.3535L24.3438 12.5918L24.5713 12.1318L30 1.12988L35.4287 12.1318Z" fill="#3BC460" stroke="#0F0F0E"/>
</svg>
