<svg width="169" height="169" viewBox="0 0 169 169" fill="none" xmlns="http://www.w3.org/2000/svg">
<path d="M41.2116 81.6212C34.9787 78.2598 37.1069 68.8286 44.1793 68.4695L68.3629 67.2421C71.5047 67.0827 74.3351 65.2944 75.8283 62.5255L87.3221 41.2124C90.6834 34.9792 100.115 37.1075 100.474 44.1801L101.701 68.3637C101.861 71.5055 103.649 74.336 106.418 75.8292L127.731 87.3229C133.964 90.6843 131.836 100.116 124.763 100.475L100.58 101.702C97.4378 101.862 94.6073 103.65 93.1141 106.419L81.6204 127.732C78.2589 133.965 68.8277 131.836 68.4686 124.764L67.2412 100.58C67.0818 97.4386 65.2936 94.6081 62.5247 93.115L41.2116 81.6212Z" fill="#FF8E24" stroke="#0F0F0E" stroke-width="2"/>
</svg>
