<svg width="174" height="174" viewBox="0 0 174 174" fill="none" xmlns="http://www.w3.org/2000/svg">
<path d="M91.1039 43.4194C94.711 37.3255 104.05 39.8279 104.127 46.9089L104.389 71.1223C104.424 74.2679 106.098 77.1674 108.805 78.7697L129.643 91.1038C135.737 94.7109 133.235 104.05 126.153 104.127L101.94 104.389C98.7943 104.423 95.8949 106.098 94.2925 108.805L81.9585 129.643C78.3514 135.737 69.0121 133.235 68.9354 126.153L68.6728 101.94C68.6387 98.7943 66.9648 95.8948 64.2576 94.2924L43.4195 81.9584C37.3256 78.3512 39.828 69.0122 46.909 68.9354L71.1223 68.6728C74.268 68.6387 77.1675 66.9647 78.7698 64.2575L91.1039 43.4194Z" fill="#FF73A6" stroke="#0F0F0E" stroke-width="2"/>
</svg>
