<svg width="233" height="44" viewBox="0 0 233 44" fill="none" xmlns="http://www.w3.org/2000/svg">
<path d="M210.81 1.5C210.96 1.5008 211.102 1.56886 211.196 1.68555L216.141 7.81055L225.495 6.6543C225.649 6.63533 225.803 6.68867 225.912 6.79883C226.021 6.9091 226.073 7.06415 226.052 7.21777L224.844 16.1152L232.296 21.5977C232.424 21.6919 232.5 21.841 232.5 22C232.5 22.159 232.424 22.3081 232.296 22.4023L224.844 27.8838L226.052 36.7822C226.073 36.9359 226.021 37.0909 225.912 37.2012C225.803 37.3113 225.649 37.3647 225.495 37.3457L216.141 36.1885L210.389 43.3145C210.294 43.4318 210.151 43.5 210 43.5H23C22.8491 43.5 22.7063 43.4318 22.6113 43.3145L16.8584 36.1885L7.50488 37.3457C7.35109 37.3647 7.19687 37.3113 7.08789 37.2012C6.97892 37.0909 6.92746 36.9359 6.94824 36.7822L8.15527 27.8838L0.704102 22.4023C0.576014 22.3081 0.5 22.159 0.5 22C0.5 21.841 0.576014 21.6919 0.704102 21.5977L8.15527 16.1152L6.94824 7.21777C6.92746 7.06415 6.97892 6.9091 7.08789 6.79883C7.19687 6.68867 7.35109 6.63533 7.50488 6.6543L16.8584 7.81055L22.6113 0.685547L22.6914 0.606445C22.7793 0.537529 22.8891 0.499394 23.0029 0.5L210.81 1.5Z" fill="#3BC460" stroke="#0F0F0E" stroke-linejoin="round"/>
</svg>
