<svg width="1392" height="850" viewBox="0 0 1392 850" fill="none" xmlns="http://www.w3.org/2000/svg">
    <g clip-path="url(#clip0_7_45)">
        <rect width="1392" height="850" fill="url(#paint0_linear_7_45)" />
        <g filter="url(#filter0_f_7_45)">
            <mask id="mask0_7_45" style="mask-type:alpha" maskUnits="userSpaceOnUse" x="-196" y="682" width="1935"
                height="236">
                <path d="M-103.365 682H1706.14L1738.88 841.834L857.806 918L-196 841.834L-103.365 682Z"
                    fill="url(#paint1_linear_7_45)" />
            </mask>
            <g mask="url(#mask0_7_45)">
                <g style="mix-blend-mode:exclusion">
                    <mask id="mask1_7_45" style="mask-type:alpha" maskUnits="userSpaceOnUse" x="-197" y="682"
                        width="1936" height="236">
                        <path d="M-103.365 682H1706.14L1738.88 841.834L857.806 918L-196 841.834L-103.365 682Z"
                            fill="#E8E6DE" />
                    </mask>
                    <g mask="url(#mask1_7_45)">
                        <path d="M-99.3655 682H1710.14L1742.88 841.834L861.806 918L-192 841.834L-99.3655 682Z"
                            fill="#E8E6DE" />
                        <path d="M83.739 816.929L324.881 827.983L239.016 859.027L-2.12606 847.973L83.739 816.929Z"
                            fill="#0F0F0E" />
                        <path d="M566.022 839.037L807.164 850.091L721.299 881.135L480.157 870.081L566.022 839.037Z"
                            fill="#0F0F0E" />

                        <path d="M255.469 754.841L496.611 765.895L410.746 796.939L169.604 785.885L255.469 754.841Z"
                            fill="#0F0F0E" />
                        <path d="M737.752 776.949L978.894 788.004L893.029 819.047L651.887 807.993L737.752 776.949Z"
                            fill="#0F0F0E" />
                        <path d="M1220.04 799.058L1461.18 810.112L1375.31 841.156L1134.17 830.101L1220.04 799.058Z"
                            fill="#0F0F0E" />

                        <path d="M101.398 712.799L342.54 723.853L256.675 754.897L15.5331 743.843L101.398 712.799Z"
                            fill="#0F0F0E" />
                        <path d="M583.681 734.907L824.823 745.961L738.958 777.005L497.816 765.951L583.681 734.907Z"
                            fill="#0F0F0E" />

                        <path d="M1065.96 757.015L1307.11 768.069L1221.24 799.113L980.1 788.059L1065.96 757.015Z"
                            fill="#0F0F0E" />

                        <path d="M427.199 692.754L668.341 703.808L582.476 734.852L341.334 723.798L427.199 692.754Z"
                            fill="#0F0F0E" />


                        <path d="M909.483 714.862L1150.62 725.916L1064.76 756.96L823.617 745.906L909.483 714.862Z"
                            fill="#0F0F0E" />


                        <path d="M1391.77 736.97L1632.91 748.024L1547.04 779.068L1305.9 768.014L1391.77 736.97Z"
                            fill="#0F0F0E" />

                        <path d="M755.412 672.819L996.553 683.873L910.688 714.917L669.546 703.863L755.412 672.819Z"
                            fill="#0F0F0E" />


                        <path d="M1237.69 694.927L1478.84 705.981L1392.97 737.025L1151.83 725.971L1237.69 694.927Z"
                            fill="#0F0F0E" />

                        <path d="M-70.332 774.887L170.81 785.941L84.9446 816.985L-156.197 805.93L-70.332 774.887Z"
                            fill="#0F0F0E" />

                        <path d="M411.951 796.995L653.093 808.049L567.228 839.093L326.086 828.039L411.951 796.995Z"
                            fill="#0F0F0E" />

                        <path d="M894.235 819.103L1135.38 830.157L1049.51 861.201L808.369 850.147L894.235 819.103Z"
                            fill="#0F0F0E" />
                        <path d="M1376.52 841.211L1617.66 852.265L1531.79 883.309L1290.65 872.255L1376.52 841.211Z"
                            fill="#0F0F0E" />
                        <path d="M1858.8 863.319L2099.94 874.373L2014.08 905.417L1772.94 894.363L1858.8 863.319Z"
                            fill="#0F0F0E" />
                    </g>
                </g>
            </g>
        </g>
    </g>
    <defs>
        <filter id="filter0_f_7_45" x="-205.4" y="672.6" width="1953.68" height="254.8" filterUnits="userSpaceOnUse"
            color-interpolation-filters="sRGB">
            <feFlood flood-opacity="0" result="BackgroundImageFix" />
            <feBlend mode="normal" in="SourceGraphic" in2="BackgroundImageFix" result="shape" />
            <feGaussianBlur stdDeviation="1.25" result="effect1_foregroundBlur_7_45" />
        </filter>
        <linearGradient id="paint0_linear_7_45" x1="696" y1="288" x2="696" y2="850" gradientUnits="userSpaceOnUse">
            <stop stop-color="#66CFFD" />
            <stop offset="1" stop-color="#002CD2" />
        </linearGradient>
        <linearGradient id="paint1_linear_7_45" x1="852.06" y1="812.98" x2="852.06" y2="692.62"
            gradientUnits="userSpaceOnUse">
            <stop stop-color="white" />
            <stop offset="1" stop-color="white" stop-opacity="0" />
        </linearGradient>
        <clipPath id="clip0_7_45">
            <rect width="1392" height="850" fill="white" />
        </clipPath>
    </defs>
</svg>