<svg preserveAspectRatio="none" width="100%" height="100%" overflow="visible" style="display: block;" viewBox="0 0 224.8 195.9" fill="none" xmlns="http://www.w3.org/2000/svg">
<g id="Group 633619">
<g id="Ellipse 518" opacity="0.64" filter="url(#filter0_f_0_203)">
<ellipse cx="112.4" cy="172.5" rx="102.5" ry="13.5" fill="url(#paint0_linear_0_203)"/>
</g>
<g id="Ellipse 515" filter="url(#filter1_ii_0_203)">
<path d="M94.9 23.5922C145.158 23.5922 185.9 18.3109 185.9 11.7961C185.9 5.28128 145.158 0 94.9 0C44.6421 0 3.9 5.28128 3.9 11.7961C3.9 18.3109 44.6421 23.5922 94.9 23.5922Z" fill="url(#paint1_linear_0_203)"/>
<path d="M185.9 11.7961C185.9 18.3109 145.158 23.5922 94.9 23.5922C44.6421 23.5922 3.9 18.3109 3.9 11.7961L3.9 162.062C3.9 168.556 7.41815 174.588 13.6628 176.37C49.3236 186.547 139.648 186.543 175.932 176.358C182.281 174.576 185.9 168.468 185.9 161.875V11.7961Z" fill="url(#paint2_radial_0_203)"/>
</g>
</g>
<defs>
<filter id="filter0_f_0_203" x="0" y="149.1" width="224.8" height="46.8" filterUnits="userSpaceOnUse" color-interpolation-filters="sRGB">
<feFlood flood-opacity="0" result="BackgroundImageFix"/>
<feBlend mode="normal" in="SourceGraphic" in2="BackgroundImageFix" result="shape"/>
<feGaussianBlur stdDeviation="4.95" result="effect1_foregroundBlur_0_203"/>
</filter>
<filter id="filter1_ii_0_203" x="-1.1" y="-9" width="193" height="195" filterUnits="userSpaceOnUse" color-interpolation-filters="sRGB">
<feFlood flood-opacity="0" result="BackgroundImageFix"/>
<feBlend mode="normal" in="SourceGraphic" in2="BackgroundImageFix" result="shape"/>
<feColorMatrix in="SourceAlpha" type="matrix" values="0 0 0 0 0 0 0 0 0 0 0 0 0 0 0 0 0 0 127 0" result="hardAlpha"/>
<feOffset dx="-5" dy="-9"/>
<feGaussianBlur stdDeviation="6.95"/>
<feComposite in2="hardAlpha" operator="arithmetic" k2="-1" k3="1"/>
<feColorMatrix type="matrix" values="0 0 0 0 0 0 0 0 0 0 0 0 0 0 0 0 0 0 0.25 0"/>
<feBlend mode="normal" in2="shape" result="effect1_innerShadow_0_203"/>
<feColorMatrix in="SourceAlpha" type="matrix" values="0 0 0 0 0 0 0 0 0 0 0 0 0 0 0 0 0 0 127 0" result="hardAlpha"/>
<feOffset dx="6" dy="2"/>
<feGaussianBlur stdDeviation="5"/>
<feComposite in2="hardAlpha" operator="arithmetic" k2="-1" k3="1"/>
<feColorMatrix type="matrix" values="0 0 0 0 1 0 0 0 0 1 0 0 0 0 1 0 0 0 0.3 0"/>
<feBlend mode="normal" in2="effect1_innerShadow_0_203" result="effect2_innerShadow_0_203"/>
</filter>
<linearGradient id="paint0_linear_0_203" x1="73.9" y1="177.29" x2="300.872" y2="182.456" gradientUnits="userSpaceOnUse">
<stop/>
<stop offset="1"/>
</linearGradient>
<linearGradient id="paint1_linear_0_203" x1="49.9" y1="-76.183" x2="93.4978" y2="76.5832" gradientUnits="userSpaceOnUse">
<stop offset="0.4375" stop-color="#5EF198"/>
<stop offset="0.538462" stop-color="#1BB349"/>
<stop offset="0.682692" stop-color="#0F793E"/>
<stop offset="0.798077" stop-color="#075E3A"/>
</linearGradient>
<radialGradient id="paint2_radial_0_203" cx="0" cy="0" r="1" gradientTransform="matrix(70 136.617 -135.132 256.357 22.4 17.3176)" gradientUnits="userSpaceOnUse">
<stop offset="0.0598684" stop-color="#6BFAA7"/>
<stop offset="0.242399" stop-color="#1DCB55"/>
<stop offset="0.526035" stop-color="#1A923A"/>
<stop offset="1" stop-color="#086840"/>
</radialGradient>
</defs>
</svg>
