<svg preserveAspectRatio="none" width="100%" height="100%" overflow="visible" style="display: block;" viewBox="0 0 225.9 268.9" fill="none" xmlns="http://www.w3.org/2000/svg">
<g id="Group 633620">
<g id="Ellipse 518" opacity="0.64" filter="url(#filter0_f_0_66)">
<ellipse cx="113.5" cy="245.5" rx="102.5" ry="13.5" fill="url(#paint0_linear_0_66)"/>
</g>
<g id="Ellipse 516" filter="url(#filter1_ii_0_66)">
<path d="M91 23.5922C141.258 23.5922 182 18.3109 182 11.7961C182 5.28128 141.258 0 91 0C40.7421 0 0 5.28128 0 11.7961C0 18.3109 40.7421 23.5922 91 23.5922Z" fill="url(#paint1_linear_0_66)"/>
<path d="M182 11.7961C182 18.3109 141.258 23.5922 91 23.5922C40.7421 23.5922 0 18.3109 0 11.7961L0 232.062C0 238.556 3.51816 244.588 9.76285 246.37C45.4236 256.547 135.748 256.543 172.032 246.358C178.381 244.576 182 238.468 182 231.875V11.7961Z" fill="url(#paint2_radial_0_66)"/>
</g>
</g>
<defs>
<filter id="filter0_f_0_66" x="1.1" y="222.1" width="224.8" height="46.8" filterUnits="userSpaceOnUse" color-interpolation-filters="sRGB">
<feFlood flood-opacity="0" result="BackgroundImageFix"/>
<feBlend mode="normal" in="SourceGraphic" in2="BackgroundImageFix" result="shape"/>
<feGaussianBlur stdDeviation="4.95" result="effect1_foregroundBlur_0_66"/>
</filter>
<filter id="filter1_ii_0_66" x="-5" y="-9" width="193" height="265" filterUnits="userSpaceOnUse" color-interpolation-filters="sRGB">
<feFlood flood-opacity="0" result="BackgroundImageFix"/>
<feBlend mode="normal" in="SourceGraphic" in2="BackgroundImageFix" result="shape"/>
<feColorMatrix in="SourceAlpha" type="matrix" values="0 0 0 0 0 0 0 0 0 0 0 0 0 0 0 0 0 0 127 0" result="hardAlpha"/>
<feOffset dx="-5" dy="-9"/>
<feGaussianBlur stdDeviation="6.95"/>
<feComposite in2="hardAlpha" operator="arithmetic" k2="-1" k3="1"/>
<feColorMatrix type="matrix" values="0 0 0 0 0 0 0 0 0 0 0 0 0 0 0 0 0 0 0.25 0"/>
<feBlend mode="normal" in2="shape" result="effect1_innerShadow_0_66"/>
<feColorMatrix in="SourceAlpha" type="matrix" values="0 0 0 0 0 0 0 0 0 0 0 0 0 0 0 0 0 0 127 0" result="hardAlpha"/>
<feOffset dx="6" dy="2"/>
<feGaussianBlur stdDeviation="5"/>
<feComposite in2="hardAlpha" operator="arithmetic" k2="-1" k3="1"/>
<feColorMatrix type="matrix" values="0 0 0 0 1 0 0 0 0 1 0 0 0 0 1 0 0 0 0.3 0"/>
<feBlend mode="normal" in2="effect1_innerShadow_0_66" result="effect2_innerShadow_0_66"/>
</filter>
<linearGradient id="paint0_linear_0_66" x1="75" y1="250.29" x2="301.972" y2="255.456" gradientUnits="userSpaceOnUse">
<stop/>
<stop offset="1"/>
</linearGradient>
<linearGradient id="paint1_linear_0_66" x1="46" y1="-6.183" x2="89.5978" y2="146.583" gradientUnits="userSpaceOnUse">
<stop offset="0.192308" stop-color="#38D87D"/>
<stop offset="0.336538" stop-color="#119D86"/>
<stop offset="0.480769" stop-color="#1EB183"/>
<stop offset="0.701923" stop-color="#109781"/>
</linearGradient>
<radialGradient id="paint2_radial_0_66" cx="0" cy="0" r="1" gradientTransform="matrix(70 188.591 -135.132 353.883 18.5 23.9059)" gradientUnits="userSpaceOnUse">
<stop offset="0.0598684" stop-color="#AEFFD0"/>
<stop offset="0.242399" stop-color="#6DEE97"/>
<stop offset="0.526035" stop-color="#39DB7D"/>
<stop offset="1" stop-color="#119D86"/>
</radialGradient>
</defs>
</svg>
