<svg width="341" height="338" viewBox="0 0 341 338" fill="none" xmlns="http://www.w3.org/2000/svg">
<mask id="path-1-outside-1_58_118" maskUnits="userSpaceOnUse" x="-0.977173" y="-0.844238" width="342" height="339" fill="black">
<rect fill="white" x="-0.977173" y="-0.844238" width="342" height="339"/>
<path d="M229.99 1.15576L215.034 2.95528L207.524 14.0831L194.94 18.8323L190.256 30.4882L178.577 30.3941L162.534 29.0665L143.75 40.1756L134.87 38.516L147.288 52.533L146.232 58.1836L165.605 61.8045L171.713 67.1231L200.471 74.1689L217.317 68.9632L199.962 65.7194L192.089 60.9063L199.679 56.0591L210.98 58.1713L212.715 48.8881L226.177 37.202L221.406 29.209L226.898 17.704L230.854 12.1778L222.782 10.6691L229.161 5.59553L229.99 1.15576Z"/>
<path d="M69.7218 45.137L13.0468 91.3536L16.4304 97.834L9.65214 109.516L21.7606 111.779L16.7818 138.418L19.5356 146.034L5.49223 156.358L1.02283 191.446L8.77858 212.528L146.076 269.1L165.356 284.4L181.191 275.663L202.062 295.855L223.05 299.778L228.026 311.15L206.348 335.503L238.022 324.715L225.913 322.452L259.779 306.642L283.309 301.433L287.157 280.848L299.854 297.841L323.478 280.953L307.737 278.011L310.226 264.692L299.732 262.731L277.421 281.535L291.834 255.824L330.192 245.031L339.233 221.241L275.718 172.193L271.795 193.181L256.458 190.315L253.825 173.114L237.276 170.021L227.869 171.187L224.474 189.349L239.186 200.036L234.131 227.078L228.062 243.905L229.839 263.452L209.013 234.079L190.997 223.193L186.048 213.914L165.464 210.067L168.33 194.729L157.606 187.295L174.592 161.229L189.872 153.225L191.683 143.538L204.919 133.062L207.71 118.129L218.728 110.581L236.084 113.824L235.035 132.843L225.383 146.495L257.068 155.758L259.407 143.246L275.8 140.462L278.516 125.932L260.757 122.613L250.327 100.196L217.174 83.1386L198.004 82.8975L192.188 100.608L178.45 116.002L138.895 108.609L132.856 89.5185L110.857 82.0652L97.7034 60.8096L73.4865 56.2835L69.7218 45.137Z"/>
<path d="M23.4799 205.022C23.4799 208.888 20.3459 212.022 16.4799 212.022C12.6139 212.022 9.47992 208.888 9.47992 205.022C9.47992 201.156 12.6139 198.022 16.4799 198.022C20.3459 198.022 23.4799 201.156 23.4799 205.022Z"/>
<path d="M228.48 325.022C228.48 328.888 225.346 332.022 221.48 332.022C217.614 332.022 214.48 328.888 214.48 325.022C214.48 321.156 217.614 318.022 221.48 318.022C225.346 318.022 228.48 321.156 228.48 325.022Z"/>
</mask>
<path d="M229.99 1.15576L215.034 2.95528L207.524 14.0831L194.94 18.8323L190.256 30.4882L178.577 30.3941L162.534 29.0665L143.75 40.1756L134.87 38.516L147.288 52.533L146.232 58.1836L165.605 61.8045L171.713 67.1231L200.471 74.1689L217.317 68.9632L199.962 65.7194L192.089 60.9063L199.679 56.0591L210.98 58.1713L212.715 48.8881L226.177 37.202L221.406 29.209L226.898 17.704L230.854 12.1778L222.782 10.6691L229.161 5.59553L229.99 1.15576Z" fill="#3BC460"/>
<path d="M69.7218 45.137L13.0468 91.3536L16.4304 97.834L9.65214 109.516L21.7606 111.779L16.7818 138.418L19.5356 146.034L5.49223 156.358L1.02283 191.446L8.77858 212.528L146.076 269.1L165.356 284.4L181.191 275.663L202.062 295.855L223.05 299.778L228.026 311.15L206.348 335.503L238.022 324.715L225.913 322.452L259.779 306.642L283.309 301.433L287.157 280.848L299.854 297.841L323.478 280.953L307.737 278.011L310.226 264.692L299.732 262.731L277.421 281.535L291.834 255.824L330.192 245.031L339.233 221.241L275.718 172.193L271.795 193.181L256.458 190.315L253.825 173.114L237.276 170.021L227.869 171.187L224.474 189.349L239.186 200.036L234.131 227.078L228.062 243.905L229.839 263.452L209.013 234.079L190.997 223.193L186.048 213.914L165.464 210.067L168.33 194.729L157.606 187.295L174.592 161.229L189.872 153.225L191.683 143.538L204.919 133.062L207.71 118.129L218.728 110.581L236.084 113.824L235.035 132.843L225.383 146.495L257.068 155.758L259.407 143.246L275.8 140.462L278.516 125.932L260.757 122.613L250.327 100.196L217.174 83.1386L198.004 82.8975L192.188 100.608L178.45 116.002L138.895 108.609L132.856 89.5185L110.857 82.0652L97.7034 60.8096L73.4865 56.2835L69.7218 45.137Z" fill="#3BC460"/>
<path d="M23.4799 205.022C23.4799 208.888 20.3459 212.022 16.4799 212.022C12.6139 212.022 9.47992 208.888 9.47992 205.022C9.47992 201.156 12.6139 198.022 16.4799 198.022C20.3459 198.022 23.4799 201.156 23.4799 205.022Z" fill="#FF8E24"/>
<path d="M228.48 325.022C228.48 328.888 225.346 332.022 221.48 332.022C217.614 332.022 214.48 328.888 214.48 325.022C214.48 321.156 217.614 318.022 221.48 318.022C225.346 318.022 228.48 321.156 228.48 325.022Z" fill="#FF8E24"/>
<path d="M229.99 1.15576L215.034 2.95528L207.524 14.0831L194.94 18.8323L190.256 30.4882L178.577 30.3941L162.534 29.0665L143.75 40.1756L134.87 38.516L147.288 52.533L146.232 58.1836L165.605 61.8045L171.713 67.1231L200.471 74.1689L217.317 68.9632L199.962 65.7194L192.089 60.9063L199.679 56.0591L210.98 58.1713L212.715 48.8881L226.177 37.202L221.406 29.209L226.898 17.704L230.854 12.1778L222.782 10.6691L229.161 5.59553L229.99 1.15576Z" stroke="black" stroke-width="2" mask="url(#path-1-outside-1_58_118)"/>
<path d="M69.7218 45.137L13.0468 91.3536L16.4304 97.834L9.65214 109.516L21.7606 111.779L16.7818 138.418L19.5356 146.034L5.49223 156.358L1.02283 191.446L8.77858 212.528L146.076 269.1L165.356 284.4L181.191 275.663L202.062 295.855L223.05 299.778L228.026 311.15L206.348 335.503L238.022 324.715L225.913 322.452L259.779 306.642L283.309 301.433L287.157 280.848L299.854 297.841L323.478 280.953L307.737 278.011L310.226 264.692L299.732 262.731L277.421 281.535L291.834 255.824L330.192 245.031L339.233 221.241L275.718 172.193L271.795 193.181L256.458 190.315L253.825 173.114L237.276 170.021L227.869 171.187L224.474 189.349L239.186 200.036L234.131 227.078L228.062 243.905L229.839 263.452L209.013 234.079L190.997 223.193L186.048 213.914L165.464 210.067L168.33 194.729L157.606 187.295L174.592 161.229L189.872 153.225L191.683 143.538L204.919 133.062L207.71 118.129L218.728 110.581L236.084 113.824L235.035 132.843L225.383 146.495L257.068 155.758L259.407 143.246L275.8 140.462L278.516 125.932L260.757 122.613L250.327 100.196L217.174 83.1386L198.004 82.8975L192.188 100.608L178.45 116.002L138.895 108.609L132.856 89.5185L110.857 82.0652L97.7034 60.8096L73.4865 56.2835L69.7218 45.137Z" stroke="black" stroke-width="2" mask="url(#path-1-outside-1_58_118)"/>
<path d="M23.4799 205.022C23.4799 208.888 20.3459 212.022 16.4799 212.022C12.6139 212.022 9.47992 208.888 9.47992 205.022C9.47992 201.156 12.6139 198.022 16.4799 198.022C20.3459 198.022 23.4799 201.156 23.4799 205.022Z" stroke="black" stroke-width="2" mask="url(#path-1-outside-1_58_118)"/>
<path d="M228.48 325.022C228.48 328.888 225.346 332.022 221.48 332.022C217.614 332.022 214.48 328.888 214.48 325.022C214.48 321.156 217.614 318.022 221.48 318.022C225.346 318.022 228.48 321.156 228.48 325.022Z" stroke="black" stroke-width="2" mask="url(#path-1-outside-1_58_118)"/>
</svg>
