<svg width="189" height="181" viewBox="0 0 189 181" fill="none" xmlns="http://www.w3.org/2000/svg">
<path d="M86.0996 6.00586C89.4049 -0.669003 98.9242 -0.669003 102.229 6.00586L123.636 49.2334C125.238 52.4685 128.326 54.7124 131.897 55.2363L179.624 62.2363C186.994 63.3172 189.936 72.3709 184.609 77.5771L150.111 111.294C147.53 113.817 146.351 117.447 146.956 121.006L155.047 168.56C156.296 175.902 148.595 181.498 141.997 178.041L99.2705 155.651C96.0729 153.976 92.2562 153.976 89.0586 155.651L46.332 178.041C39.7346 181.498 32.0329 175.902 33.2822 168.56L41.373 121.006C41.9785 117.447 40.7994 113.817 38.2178 111.294L3.71973 77.5771C-1.60672 72.3709 1.33562 63.3172 8.70508 62.2363L56.4316 55.2363C60.0035 54.7124 63.0914 52.4685 64.6934 49.2334L86.0996 6.00586Z" fill="#3BC460" stroke="#0F0F0E" stroke-width="2"/>
</svg>
