<svg width="1512" height="1042" viewBox="0 0 1512 1042" fill="none" xmlns="http://www.w3.org/2000/svg">
<mask id="mask0_1119_340" style="mask-type:alpha" maskUnits="userSpaceOnUse" x="-199" y="0" width="1729" height="1043">
<path d="M60.0747 1.29483L509.705 100.213L1451.98 0.509766L1529 28.7722V1041.51H-132.981L-198 229.357L60.0747 1.29483Z" fill="url(#paint0_linear_1119_340)" stroke="black"/>
</mask>
<g mask="url(#mask0_1119_340)">
<path d="M60.0747 1.29483L509.705 100.213L1451.98 0.509766L1529 28.7722V1041.51H-132.981L-198 229.357L60.0747 1.29483Z" fill="url(#paint1_linear_1119_340)" stroke="#0F0F0E"/>
<g style="mix-blend-mode:difference" filter="url(#filter0_f_1119_340)">
<mask id="mask1_1119_340" style="mask-type:alpha" maskUnits="userSpaceOnUse" x="-301" y="852" width="1935" height="279">
<path d="M-208.365 852.51H1601.14L1633.88 1040.79L752.806 1130.51L-301 1040.79L-208.365 852.51Z" fill="url(#paint2_linear_1119_340)"/>
</mask>
<g mask="url(#mask1_1119_340)">
<mask id="mask2_1119_340" style="mask-type:alpha" maskUnits="userSpaceOnUse" x="-301" y="852" width="1935" height="279">
<path d="M-208.365 852.51H1601.14L1633.88 1040.79L752.806 1130.51L-301 1040.79L-208.365 852.51Z" fill="#E8E6DE"/>
</mask>
<g mask="url(#mask2_1119_340)">
<path d="M-208.365 852.51H1601.14L1633.88 1040.79L752.806 1130.51L-301 1040.79L-208.365 852.51Z" fill="#E8E6DE"/>
<path d="M-833.346 1009.02L-592.204 1022.04L-678.069 1058.61L-919.211 1045.59L-833.346 1009.02Z" fill="#0F0F0E"/>
<path d="M-351.062 1035.06L-109.92 1048.09L-195.786 1084.65L-436.927 1071.63L-351.062 1035.06Z" fill="#0F0F0E"/>
<path d="M131.221 1061.11L372.363 1074.13L286.498 1110.7L45.356 1097.68L131.221 1061.11Z" fill="#0F0F0E"/>
<path d="M613.504 1087.15L854.646 1100.17L768.781 1136.74L527.639 1123.72L613.504 1087.15Z" fill="#0F0F0E"/>
<path d="M1095.79 1113.19L1336.93 1126.21L1251.06 1162.78L1009.92 1149.76L1095.79 1113.19Z" fill="#0F0F0E"/>
<path d="M1578.07 1139.23L1819.21 1152.26L1733.35 1188.82L1492.21 1175.8L1578.07 1139.23Z" fill="#0F0F0E"/>
<path d="M-507.544 985.409L-266.403 998.431L-352.268 1035L-593.409 1021.98L-507.544 985.409Z" fill="#0F0F0E"/>
<path d="M-25.261 1011.45L215.881 1024.47L130.016 1061.04L-111.126 1048.02L-25.261 1011.45Z" fill="#0F0F0E"/>
<path d="M457.022 1037.49L698.164 1050.52L612.299 1087.08L371.157 1074.06L457.022 1037.49Z" fill="#0F0F0E"/>
<path d="M939.305 1063.54L1180.45 1076.56L1094.58 1113.13L853.44 1100.11L939.305 1063.54Z" fill="#0F0F0E"/>
<path d="M1421.59 1089.58L1662.73 1102.6L1576.86 1139.17L1335.72 1126.15L1421.59 1089.58Z" fill="#0F0F0E"/>
<path d="M1903.87 1115.62L2145.01 1128.64L2059.15 1165.21L1818.01 1152.19L1903.87 1115.62Z" fill="#0F0F0E"/>
<path d="M-335.814 912.272L-94.6726 925.293L-180.538 961.862L-421.679 948.841L-335.814 912.272Z" fill="#0F0F0E"/>
<path d="M146.469 938.314L387.611 951.336L301.746 987.904L60.604 974.883L146.469 938.314Z" fill="#0F0F0E"/>
<path d="M628.752 964.357L869.894 977.378L784.029 1013.95L542.887 1000.93L628.752 964.357Z" fill="#0F0F0E"/>
<path d="M1111.04 990.4L1352.18 1003.42L1266.31 1039.99L1025.17 1026.97L1111.04 990.4Z" fill="#0F0F0E"/>
<path d="M1593.32 1016.44L1834.46 1029.46L1748.6 1066.03L1507.45 1053.01L1593.32 1016.44Z" fill="#0F0F0E"/>
<path d="M2075.6 1042.48L2316.74 1055.51L2230.88 1092.07L1989.74 1079.05L2075.6 1042.48Z" fill="#0F0F0E"/>
<path d="M-489.885 862.747L-248.744 875.768L-334.609 912.337L-575.75 899.316L-489.885 862.747Z" fill="#0F0F0E"/>
<path d="M-7.6018 888.79L233.54 901.811L147.675 938.38L-93.4669 925.358L-7.6018 888.79Z" fill="#0F0F0E"/>
<path d="M474.681 914.832L715.823 927.853L629.958 964.422L388.816 951.401L474.681 914.832Z" fill="#0F0F0E"/>
<path d="M956.965 940.875L1198.11 953.896L1112.24 990.465L871.1 977.443L956.965 940.875Z" fill="#0F0F0E"/>
<path d="M1439.25 966.917L1680.39 979.939L1594.52 1016.51L1353.38 1003.49L1439.25 966.917Z" fill="#0F0F0E"/>
<path d="M1921.53 992.96L2162.67 1005.98L2076.81 1042.55L1835.67 1029.53L1921.53 992.96Z" fill="#0F0F0E"/>
<path d="M-164.084 839.135L77.0576 852.156L-8.80753 888.725L-249.949 875.703L-164.084 839.135Z" fill="#0F0F0E"/>
<path d="M318.199 865.177L559.341 878.198L473.476 914.767L232.334 901.746L318.199 865.177Z" fill="#0F0F0E"/>
<path d="M800.482 891.22L1041.62 904.241L955.759 940.81L714.617 927.788L800.482 891.22Z" fill="#0F0F0E"/>
<path d="M1282.77 917.262L1523.91 930.284L1438.04 966.852L1196.9 953.831L1282.77 917.262Z" fill="#0F0F0E"/>
<path d="M1765.05 943.305L2006.19 956.326L1920.33 992.895L1679.18 979.873L1765.05 943.305Z" fill="#0F0F0E"/>
<path d="M2247.33 969.347L2488.47 982.369L2402.61 1018.94L2161.47 1005.92L2247.33 969.347Z" fill="#0F0F0E"/>
<path d="M-318.155 789.61L-77.0135 802.631L-162.879 839.2L-404.02 826.178L-318.155 789.61Z" fill="#0F0F0E"/>
<path d="M164.128 815.652L405.27 828.674L319.405 865.242L78.2632 852.221L164.128 815.652Z" fill="#0F0F0E"/>
<path d="M646.411 841.695L887.553 854.716L801.688 891.285L560.546 878.264L646.411 841.695Z" fill="#0F0F0E"/>
<path d="M1128.69 867.737L1369.84 880.759L1283.97 917.327L1042.83 904.306L1128.69 867.737Z" fill="#0F0F0E"/>
<path d="M1610.98 893.78L1852.12 906.801L1766.25 943.37L1525.11 930.349L1610.98 893.78Z" fill="#0F0F0E"/>
<path d="M2093.26 919.823L2334.4 932.844L2248.54 969.412L2007.4 956.391L2093.26 919.823Z" fill="#0F0F0E"/>
<path d="M7.64608 765.997L248.788 779.018L162.923 815.587L-78.219 802.566L7.64608 765.997Z" fill="#0F0F0E"/>
<path d="M489.929 792.04L731.071 805.061L645.206 841.63L404.064 828.608L489.929 792.04Z" fill="#0F0F0E"/>
<path d="M972.213 818.082L1213.35 831.104L1127.49 867.672L886.347 854.651L972.213 818.082Z" fill="#0F0F0E"/>
<path d="M1454.5 844.125L1695.64 857.146L1609.77 893.715L1368.63 880.694L1454.5 844.125Z" fill="#0F0F0E"/>
<path d="M1936.78 870.167L2177.92 883.189L2092.06 919.757L1850.91 906.736L1936.78 870.167Z" fill="#0F0F0E"/>
<path d="M2419.06 896.21L2660.2 909.231L2574.34 945.8L2333.2 932.779L2419.06 896.21Z" fill="#0F0F0E"/>
<path d="M-661.615 935.884L-420.474 948.906L-506.339 985.474L-747.481 972.453L-661.615 935.884Z" fill="#0F0F0E"/>
<path d="M-179.332 961.927L61.8096 974.948L-24.0555 1011.52L-265.197 998.496L-179.332 961.927Z" fill="#0F0F0E"/>
<path d="M302.951 987.97L544.093 1000.99L458.228 1037.56L217.086 1024.54L302.951 987.97Z" fill="#0F0F0E"/>
<path d="M785.234 1014.01L1026.38 1027.03L940.511 1063.6L699.369 1050.58L785.234 1014.01Z" fill="#0F0F0E"/>
<path d="M1267.52 1040.05L1508.66 1053.08L1422.79 1089.64L1181.65 1076.62L1267.52 1040.05Z" fill="#0F0F0E"/>
<path d="M1749.8 1066.1L1990.94 1079.12L1905.08 1115.69L1663.94 1102.67L1749.8 1066.1Z" fill="#0F0F0E"/>
</g>
</g>
</g>
</g>
<defs>
<filter id="filter0_f_1119_340" x="-310.4" y="843.11" width="1953.68" height="296.8" filterUnits="userSpaceOnUse" color-interpolation-filters="sRGB">
<feFlood flood-opacity="0" result="BackgroundImageFix"/>
<feBlend mode="normal" in="SourceGraphic" in2="BackgroundImageFix" result="shape"/>
<feGaussianBlur stdDeviation="4.7" result="effect1_foregroundBlur_1119_340"/>
</filter>
<linearGradient id="paint0_linear_1119_340" x1="698.009" y1="0.509766" x2="697.855" y2="639.163" gradientUnits="userSpaceOnUse">
<stop stop-color="#66CFFD"/>
<stop offset="1" stop-color="#3E91ED"/>
</linearGradient>
<linearGradient id="paint1_linear_1119_340" x1="698.009" y1="0.509766" x2="697.855" y2="639.163" gradientUnits="userSpaceOnUse">
<stop stop-color="#66CFFD"/>
<stop offset="1" stop-color="#3E91ED"/>
</linearGradient>
<linearGradient id="paint2_linear_1119_340" x1="747.06" y1="1006.8" x2="747.06" y2="865.02" gradientUnits="userSpaceOnUse">
<stop stop-color="white"/>
<stop offset="1" stop-color="white" stop-opacity="0"/>
</linearGradient>
</defs>
</svg>
